<svg height="18pt" viewBox="0 0 96 96" width="18pt" xmlns="http://www.w3.org/2000/svg">
    <g id="Loan" fill="#969696">
        <path d="m17 15.6h-4v13.21c4.38 0 4.46-.07 5.13.21v-12.33a1.09 1.09 0 0 0 -1.13-1.09z"/>
        <path d="m17 30.81h-4v7.69h4a1.09 1.09 0 0 0 1.09-1.09v-5.51a1.09 1.09 0 0 0 -1.09-1.09z"/>
        <path d="m.61 15.6h10.36v26.45h-10.36z"/>
        <path d="m65.87 64.34-17 6.54a2.65 2.65 0 0 0 1.73 5l14.81-4.56a1 1 0 1 1 .59 1.92l-14.8 4.56a4.67 4.67 0 0 1 -6-3.9l-13.52-9a3.63 3.63 0 0 0 -4.44 5.73l17.06 15.37a14.7 14.7 0 0 0 14.93 2.9c14.61-5.4 13.77-5.29 15.65-5.23v-18l-1.44-.81a8.94 8.94 0 0 0 -7.57-.52z"/>
        <path d="m86.18 64.32h-8.18a1.09 1.09 0 0 0 -1.09 1.09v11.47a3.06 3.06 0 0 1 1.09-.2c8.74 0 8.58-.08 9.31.2v-11.47a1.09 1.09 0 0 0 -1.13-1.09z"/>
        <rect height="11.13" rx="1.09" width="10.4" x="76.88" y="78.68"/>
        <path d="m89.28 66.08h6.11v21.58h-6.11z"/>
        <path d="m34.35 10.64c1.75.32 1.5.3 13.81 4.77a3.52 3.52 0 0 1 2.84-1.41c3.3 0 3.29 0 3.8.08l2.5-5.38a1.75 1.75 0 0 0 -1.59-2.49h-4.18l-.73 4.88a1 1 0 0 1 -2-.3l.69-4.58h-8.26l.49 3.29a1 1 0 0 1 -.84 1.14 1 1 0 0 1 -1.14-.84l-.54-3.61h-4.2a1.75 1.75 0 0 0 -1.59 2.49z"/>
        <path d="m45.37 60.35c11.41 0 20.63-3.52 20.63-14.93 0-7.53-4-16.6-10-21.91-1.09.74-2 .59-3.78.59a5.56 5.56 0 0 1 -6 2.42l-9.37-2.19a12.62 12.62 0 0 1 -10.34 11.67 27.83 27.83 0 0 0 -1.79 9.38c0 11.45 9.28 14.97 20.65 14.97zm1.36-15.11h-2.33a2.46 2.46 0 0 1 -2.46-2.46v-1.61a3.33 3.33 0 0 1 2.62-3.25v-1.51a1 1 0 0 1 2 0v1.51c2.73.58 3.44 4.25 1.63 4.25a1 1 0 0 1 -1-1 1.34 1.34 0 0 0 -1.34-1.33h-.57a1.34 1.34 0 0 0 -1.34 1.33v1.61a.45.45 0 0 0 .46.46h2.33a2.46 2.46 0 0 1 2.46 2.45v1.62a3.33 3.33 0 0 1 -2.63 3.25v1.51a1 1 0 0 1 -2 0v-1.51c-2.72-.6-3.42-4.25-1.62-4.25a1 1 0 0 1 1 1 1.34 1.34 0 0 0 1.34 1.33h.57a1.34 1.34 0 0 0 1.34-1.33v-1.62a.45.45 0 0 0 -.46-.45z"/>
        <path d="m54.06 22.1a1.54 1.54 0 0 0 1.53-1.53v-3.06a1.54 1.54 0 0 0 -1.53-1.51c-3 0-3.32-.1-3.87.24a5.55 5.55 0 0 1 2.81 5.86z"/>
        <path d="m23.12 36.53a1 1 0 0 1 -.12-2 17 17 0 0 0 3.15-.47 10.64 10.64 0 0 0 8.12-6.85 17.12 17.12 0 0 0 .73-5.37c9.39 2.16 13.1 3.25 13.37 2.71a4 4 0 0 0 1.09-.47c.82-.74 1-.79 1.33-1.57a3.62 3.62 0 0 0 -.19-3.21c-.92-1.51-.9-1.2-14.28-6.06a14.55 14.55 0 0 0 -12.17 1l-4.06 2.31v20.84a3.05 3.05 0 0 1 -.74 2 11.72 11.72 0 0 0 3.49 3.61 31.49 31.49 0 0 1 1.41-6.59c-.36.08-.44.07-1.13.12z"/>
    </g>
</svg>