<svg id="Layer_1" height="18pt" viewBox="0 0 512 512" width="18pt" xmlns="http://www.w3.org/2000/svg" data-name="Layer 1">
    <path d="m398.29 333.71 17.028-28.363c3.288 1 6.7 1.96 10.028 2.893 10.888 3.049 22.147 6.202 30.723 11.23 12.287 7.203 13.994 13.291 14.055 50.105v13.107s-2.491-.313-2.491-.313l-14.567-31.008c-.824-1.754-2.587-2.874-4.525-2.874s-3.701 1.12-4.525 2.874l-14.568 31.008-33.991 4.272c-.308.039-.604.115-.893.207h-22.214v-64.142l18.88 12.59c.828.552 1.795.84 2.774.84.366 0 .733-.04 1.096-.122 1.333-.3 2.487-1.132 3.19-2.305zm61.462 55.402-11.212-23.866-11.213 23.866c-.729 1.552-2.201 2.621-3.902 2.835l-26.163 3.289 19.233 18.039c1.25 1.172 1.812 2.903 1.49 4.586l-4.957 25.899 23.1-12.718c1.502-.826 3.321-.826 4.823 0l23.099 12.718-4.957-25.899c-.322-1.683.24-3.414 1.49-4.586l19.233-18.039-26.163-3.289c-1.701-.214-3.173-1.284-3.902-2.835zm-149.845-80.875c-10.89 3.05-22.151 6.203-30.728 11.232-12.286 7.203-13.994 13.292-14.054 50.113v17.266s97.224 0 97.224 0v-63.775l-18.33 12.223c-.828.552-1.795.84-2.774.84-.366 0-.733-.04-1.096-.122-1.334-.3-2.487-1.132-3.19-2.305l-17.027-28.362c-3.292 1.002-6.697 1.958-10.024 2.889zm-270.895 187.763h314.691c12.688 0 23.012-10.323 23.012-23.012v-76.14h-18.181v75.971c0 2.762-2.239 5-5 5h-314.353c-2.761 0-5-2.238-5-5v-385.812c0-2.761 2.239-5 5-5h67.447v-18.181h-67.616c-12.689 0-23.012 10.323-23.012 23.012v386.15c0 12.688 10.323 23.012 23.012 23.012zm47.853-358.119h49.383c2.504 0 4.541 2.037 4.541 4.54v49.384c0 2.503-2.037 4.54-4.541 4.54h-49.383c-2.503 0-4.54-2.037-4.54-4.54v-49.384c0-2.503 2.037-4.54 4.54-4.54zm3.178 29.739 8.531 14.889c.774 1.351 2.134 2.264 3.678 2.47.221.029.441.044.661.044 1.317 0 2.591-.521 3.535-1.464l25.82-25.82c1.953-1.953 1.953-5.119 0-7.071s-5.118-1.952-7.071 0l-21.197 21.197-5.28-9.216c-1.373-2.396-4.429-3.226-6.824-1.853s-3.225 4.428-1.853 6.824zm269.197 145.508-23.002-18.896-8.559 4.593 15.154 25.243 16.406-10.94zm-34.05-96.45c-.463 14.291 3.612 29.044 11.179 40.475 7.936 11.986 19.025 19.068 31.256 19.972 12.231-.903 23.321-7.985 31.256-19.972 7.567-11.431 11.642-26.184 11.179-40.475-.332-10.251-4.373-43.7-42.435-43.7s-42.103 33.449-42.435 43.7zm33.345-129.67v76.595c2.921-.413 5.953-.625 9.09-.625s6.169.212 9.09.625v-76.765c0-12.689-10.323-23.012-23.012-23.012h-67.616v18.181h67.448c2.761 0 5 2.239 5 5zm29.418 203.368c-1.738-2.244-2.994-4.688-3.749-7.329-4.974 2.258-10.397 3.698-16.256 4.078-.108.007-.216.011-.324.011s-.216-.004-.324-.011c-5.859-.38-11.282-1.82-16.256-4.078-.754 2.64-2.011 5.085-3.749 7.329l20.329 16.7zm4.462 33.693 15.155-25.243-8.559-4.593-23.002 18.896zm-251.627 43.953v49.383c0 2.504-2.037 4.541-4.541 4.541h-49.383c-2.503 0-4.54-2.037-4.54-4.541v-49.383c0-2.504 2.037-4.54 4.54-4.54h49.383c2.504 0 4.541 2.036 4.541 4.54zm-8.521 8.246c-1.953-1.953-5.118-1.953-7.071 0l-21.197 21.196-5.28-9.216c-1.373-2.396-4.429-3.227-6.824-1.853-2.396 1.372-3.226 4.428-1.853 6.823l8.531 14.89c.774 1.352 2.134 2.265 3.678 2.471.221.029.441.044.661.044 1.316 0 2.591-.521 3.535-1.465l25.82-25.82c1.953-1.952 1.953-5.118 0-7.07zm8.521-121.046v49.383c0 2.504-2.037 4.541-4.541 4.541h-49.383c-2.503 0-4.54-2.037-4.54-4.541v-49.383c0-2.504 2.037-4.54 4.54-4.54h49.383c2.504 0 4.541 2.036 4.541 4.54zm-8.521 8.246c-1.953-1.953-5.118-1.953-7.071 0l-21.197 21.196-5.28-9.215c-1.373-2.396-4.429-3.227-6.824-1.853-2.396 1.372-3.225 4.428-1.853 6.823l8.531 14.889c.774 1.352 2.134 2.265 3.678 2.471.221.029.441.044.661.044 1.317 0 2.591-.521 3.535-1.465l25.82-25.82c1.953-1.952 1.953-5.118 0-7.07zm143.82-174.18h-159.459v-30.461c0-3.494 1.356-6.406 4.031-8.653 2.676-2.248 5.778-3.083 9.22-2.481l32.667 5.71c1.454.251 2.947-.147 4.078-1.098 1.13-.95 1.783-2.351 1.783-3.828v-4.525c0-15.413 12.539-27.951 27.951-27.951s27.951 12.539 27.951 27.951v4.525c0 1.477.653 2.878 1.783 3.828s2.621 1.35 4.078 1.098l32.667-5.71c3.445-.601 6.544.233 9.219 2.48 2.675 2.248 4.031 5.16 4.031 8.654zm-66.133-45.241c0-7.498-6.099-13.597-13.596-13.597s-13.597 6.1-13.597 13.597 6.1 13.597 13.597 13.597 13.596-6.1 13.596-13.597zm-103.326 50.241c0 2.761 2.239 5 5 5h169.459c2.761 0 5-2.239 5-5v-2.28h62.448v73.964c-7.969 2.713-14.796 7.235-20.179 13.472-8.133 9.423-12.684 22.187-13.161 36.911-.744 22.985 8.96 47.933 26.667 61.232-.142 2.451-.89 4.554-2.324 6.47-1.516-.982-3.459-1.087-5.078-.219l-16.132 8.657c-1.205.646-2.093 1.759-2.456 3.077-.053.192-.069.388-.098.582-2.755.821-5.601 1.624-8.562 2.454-11.502 3.221-23.396 6.552-33.089 12.234-18.002 10.555-18.938 23.332-18.997 58.732v22.273c0 1.326.526 2.598 1.463 3.535.938.938 2.209 1.465 3.536 1.465h88.41v70.971h-304.354v-375.811h62.447v2.28zm44.161 273.734c0-8.018-6.523-14.54-14.541-14.54h-49.383c-8.018 0-14.54 6.522-14.54 14.54v49.383c0 8.018 6.522 14.541 14.54 14.541h49.383c8.018 0 14.541-6.523 14.541-14.541zm0-112.8c0-8.018-6.523-14.54-14.541-14.54h-49.383c-8.018 0-14.54 6.522-14.54 14.54v49.383c0 8.018 6.522 14.541 14.54 14.541h49.383c8.018 0 14.541-6.523 14.541-14.541zm19.566-113.924c0 2.761 2.239 5 5 5h93.836c2.761 0 5-2.239 5-5s-2.239-5-5-5h-93.836c-2.761 0-5 2.239-5 5zm0 25.815c0 2.761 2.239 5 5 5h120.236c2.761 0 5-2.239 5-5s-2.239-5-5-5h-120.236c-2.761 0-5 2.239-5 5zm0 25.815c0 2.761 2.239 5 5 5h120.236c2.761 0 5-2.239 5-5s-2.239-5-5-5h-120.236c-2.761 0-5 2.239-5 5zm0 61.169c0 2.762 2.239 5 5 5h93.836c2.761 0 5-2.238 5-5s-2.239-5-5-5h-93.836c-2.761 0-5 2.238-5 5zm0 25.815c0 2.762 2.239 5 5 5h120.236c2.761 0 5-2.238 5-5s-2.239-5-5-5h-120.236c-2.761 0-5 2.238-5 5zm0 25.815c0 2.762 2.239 5 5 5h68.218c2.761 0 5-2.238 5-5s-2.239-5-5-5h-68.218c-2.761 0-5 2.238-5 5zm0 61.169c0 2.762 2.239 5 5 5h57.236c2.761 0 5-2.238 5-5s-2.239-5-5-5h-57.236c-2.761 0-5 2.238-5 5zm0 25.815c0 2.762 2.239 5 5 5h57.236c2.761 0 5-2.238 5-5s-2.239-5-5-5h-57.236c-2.761 0-5 2.238-5 5zm0 25.815c0 2.762 2.239 5 5 5h120.236c2.761 0 5-2.238 5-5s-2.239-5-5-5h-120.236c-2.761 0-5 2.238-5 5zm-83.49-290.645c-8.018 0-14.54 6.522-14.54 14.54v49.384c0 8.018 6.522 14.54 14.54 14.54h49.383c8.018 0 14.541-6.522 14.541-14.54v-49.384c0-8.018-6.523-14.54-14.541-14.54z" fill="#FFFFFF"/>
</svg>