<svg id="Layer_1" enable-background="new 0 0 512 512" width="18pt" height="18pt" viewBox="0 0 512 512" xmlns="http://www.w3.org/2000/svg"><path d="m108.18 86.346h-70.346l70.346-70.346zm75.174 209.415c-18.599 0-33.816 15.217-33.816 33.816v126.029h-119.204v-354.26h85.346c4.142 0 7.5-3.358 7.5-7.5v-85.346h260.533v10.251c-60.091 0-109.213 46.926-112.74 106.131h-91.089c-4.142 0-7.5 3.358-7.5 7.5s3.358 7.5 7.5 7.5h91.175c.568 7.931 1.953 15.637 4.074 23.031h-95.249c-4.142 0-7.5 3.358-7.5 7.5s3.358 7.5 7.5 7.5h100.737c10.575 23.559 28.99 42.835 51.923 54.509h-152.66c-4.142 0-7.5 3.358-7.5 7.5s3.358 7.5 7.5 7.5h156.419c4.142 0 7.5-3.358 7.5-7.5 0-.961-.181-1.88-.51-2.725 12.551 4.812 26.176 7.456 40.421 7.456v51.107h-200.36zm-40.735 42.653c-3.139-2.686-7.861-2.318-10.547.82l-32.81 38.277-15.951-17.764c-2.767-3.074-7.502-3.323-10.576-.557s-3.323 7.502-.557 10.576l21.643 24.103c3.132 3.48 8.647 3.241 11.49-.427l38.128-44.481c2.686-3.139 2.319-7.862-.82-10.547zm0-107.541c-3.139-2.686-7.861-2.318-10.547.82l-32.81 38.277-15.951-17.764c-2.767-3.074-7.502-3.323-10.576-.557s-3.323 7.502-.557 10.576l21.643 24.103c3.132 3.48 8.647 3.241 11.49-.427l38.128-44.481c2.686-3.138 2.319-7.861-.82-10.547zm0-107.54c-3.139-2.686-7.861-2.318-10.547.82l-32.81 38.277-15.951-17.764c-2.767-3.074-7.502-3.323-10.576-.557s-3.323 7.502-.557 10.576l21.643 24.102c3.132 3.48 8.647 3.241 11.49-.427l38.128-44.481c2.686-3.137 2.319-7.86-.82-10.546zm37.265 162.121h156.419c4.142 0 7.5-3.358 7.5-7.5s-3.358-7.5-7.5-7.5h-156.419c-4.142 0-7.5 3.358-7.5 7.5s3.358 7.5 7.5 7.5zm-15.347 78.844h291.272v-8.573h-291.272zm272.456-53.537h-253.639c-10.349 0-18.816 8.467-18.816 18.816v11.148h291.272v-11.148c-.001-10.349-8.469-18.816-18.817-18.816zm-54.83-171.558h3.102c5.012 0 9.139 4.127 9.139 9.139s-4.127 9.14-9.139 9.14h-1.551c-5.012 0-9.139-4.128-9.139-9.139 0-4.142-3.358-7.5-7.5-7.5s-7.5 3.358-7.5 7.5c0 10.439 6.771 19.699 16.639 22.943v4.968c0 4.142 3.358 7.5 7.5 7.5s7.5-3.358 7.5-7.5v-4.516c10.641-2.716 18.19-12.368 18.19-23.395 0-13.291-10.849-24.139-24.14-24.139h-3.102c-5.011 0-9.139-4.128-9.139-9.14 0-5.011 4.127-9.139 9.139-9.139h1.551c5.011 0 9.139 4.128 9.139 9.139 0 4.142 3.358 7.5 7.5 7.5s7.5-3.358 7.5-7.5c0-10.439-6.77-19.699-16.639-22.942v-4.969c0-4.142-3.358-7.5-7.5-7.5s-7.5 3.358-7.5 7.5v4.516c-10.641 2.716-18.19 12.366-18.19 23.394 0 13.291 10.848 24.14 24.14 24.14zm1.551-105.452c54.097 0 97.952 43.854 97.952 97.952 0 54.097-43.855 97.952-97.952 97.952s-97.952-43.855-97.952-97.952c0-54.098 43.855-97.952 97.952-97.952zm-68.658 97.952c0 37.919 30.739 68.658 68.658 68.658s68.658-30.739 68.658-68.658-30.739-68.658-68.658-68.658-68.658 30.739-68.658 68.658zm-150.519 247.596h291.272v105.385c0 10.349-8.468 18.816-18.816 18.816h-253.639c-10.349 0-18.816-8.467-18.816-18.816v-105.385zm180.673 83.949c0 2.201 1.799 4 4 4h69.765c2.2 0 4-1.799 4-4v-18.119c0-2.201-1.8-4-4-4h-69.765c-2.2 0-4 1.799-4 4zm-108.102-25.718h26.106v-11.785c0-1.613-1.32-2.933-2.933-2.933h-23.173zm-41.106 0h26.106v-14.718h-23.173c-1.613 0-2.933 1.32-2.933 2.933zm0 26.785c0 1.613 1.32 2.933 2.933 2.933h61.346c1.613 0 2.933-1.32 2.933-2.933v-11.784h-67.212z" fill="#FFFFFF"/></svg>