<svg fill="none" height="18pt" viewBox="0 0 24 24" width="18pt" xmlns="http://www.w3.org/2000/svg">
    <g clip-rule="evenodd" fill="rgb(0,0,0)" fill-rule="evenodd">
        <path d="m1.25 8.5c0-.41421.33579-.75.75-.75h11.5c.4142 0 .75.33579.75.75s-.3358.75-.75.75h-11.5c-.41421 0-.75-.33579-.75-.75z" fill="#FFFFFF"/>
        <path d="m5.25 16.5c0-.4142.33579-.75.75-.75h2c.41421 0 .75.3358.75.75s-.33579.75-.75.75h-2c-.41421 0-.75-.3358-.75-.75z" fill="#FFFFFF"/>
        <path d="m9.75 16.5c0-.4142.3358-.75.75-.75h4c.4142 0 .75.3358.75.75s-.3358.75-.75.75h-4c-.4142 0-.75-.3358-.75-.75z" fill="#FFFFFF"/>
        <path d="m3.41607 4.91207c-.42506.42028-.66607 1.2191-.66607 2.97793v8.22c0 1.7588.24101 2.5576.66607 2.9779.42802.4232 1.24293.6621 3.02393.6621h11.12c1.781 0 2.5959-.2389 3.0239-.6621.4251-.4203.6661-1.2191.6661-2.9779v-4.08c0-.4142.3358-.75.75-.75s.75.3358.75.75v4.08c0 1.7512-.204 3.1474-1.1114 4.0446-.9045.8943-2.3096 1.0954-4.0786 1.0954h-11.12c-1.769 0-3.17409-.2011-4.07857-1.0954-.90744-.8972-1.11143-2.2934-1.11143-4.0446v-8.22c0-1.75117.20399-3.14735 1.11143-4.04457.90448-.8943 2.30957-1.09543 4.07857-1.09543h7.06c.4142 0 .75.33579.75.75s-.3358.75-.75.75h-7.06c-1.781 0-2.59591.23887-3.02393.66207z" fill="#FFFFFF"/>
        <path d="m15.75 6.25c0-.41421.3358-.75.75-.75h5.5c.4142 0 .75.33579.75.75s-.3358.75-.75.75h-5.5c-.4142 0-.75-.33579-.75-.75z" fill="#FFFFFF"/>
        <path d="m19.25 2.75c.4142 0 .75.33579.75.75v5.5c0 .41421-.3358.75-.75.75s-.75-.33579-.75-.75v-5.5c0-.41421.3358-.75.75-.75z" fill="#FFFFFF"/>
    </g>
</svg>