<svg id="Layer_1" enable-background="new 0 0 2100 2100" height="18pt" viewBox="0 0 2100 2100" width="18pt" xmlns="http://www.w3.org/2000/svg">
    <path id="Layer1" d="m1033.6 105.4c-161.1 0-291.8 130.8-291.8 291.8 0 107.8 58.5 201.9 145.5 252.5 61.5-12.2 125.6-18.6 191.5-18.6 40.5 0 80.4 2.4 119.4 7.2 76.8-52.6 127.3-141 127.3-241-.1-161.1-130.8-291.9-291.9-291.9zm32.8 433.8v25.1c0 18.1-14.7 32.8-32.8 32.8s-32.8-14.7-32.8-32.8v-22.4c-27.3-6-50-20.4-64-38.6-11-14.4-8.2-35 6.2-46s35-8.2 46 6.1c7.8 10.2 22.9 15.8 39.5 15.8 13.2 0 25.2-3.6 33.8-10.1 5.1-3.8 9.2-8.6 9.2-14.5 0-15.7-17.1-24.6-37.9-24.6-1.7 0-3.4-.1-5.1-.4-57-4.4-98.4-45.3-98.4-89.9 0-36.9 28.5-71.3 70.7-84.5v-25.1c0-18.1 14.7-32.8 32.8-32.8s32.8 14.7 32.8 32.8v22.4c27.3 6 50 20.4 64 38.6 11 14.4 8.2 35-6.2 46s-35 8.2-46-6.2c-7.8-10.2-22.9-15.8-39.5-15.8-13.1 0-25.1 3.6-33.7 10.2-5.1 3.8-9.2 8.6-9.2 14.4 0 5.9 4.1 10.6 9.2 14.5 8.6 6.5 20.6 10.1 33.7 10.1 1.7 0 3.3.1 4.9.4 57.3 4.2 93.5 44.6 93.5 89.9 0 37-28.5 71.4-70.7 84.6zm889.6 446.9-65.7-19c-26.3-93.4-76-154.2-144.8-227.6l86.6-187.4c5.5-12 3.3-26.2-5.6-35.9-8.9-9.8-22.8-13.2-35.2-8.7l-229 82c-57.5-34.5-120.5-63.1-187.7-84.5-17.9 56.6-49.5 107.1-90.8 147.7 54.3 11.6 106.5 27.6 155.9 47.6 16.8 6.8 24.9 25.9 18.1 42.7s-25.9 24.9-42.7 18.1c-63.1-25.5-130.9-44.1-202.1-54.5l-.2.1c-43.1-6.8-87.5-9.8-132.8-9.8-71.2 0-137 7.6-202.6 22.1-27.8 6.2-55 13.8-81.5 22.5s-52.2 18.6-77.2 29.6c-16.6 7.3-35.9-.2-43.2-16.8s.2-35.9 16.8-43.2c35.5-15.7 72.5-29.2 110.8-40.5-43.2-36.5-77.6-83-99.6-135.9-219.7 93.5-383.1 266.4-437.7 472.7-17.7-10-32.6-21.5-45.2-34 29.1-40.2 58.2-87.4 72.9-131.4 19.1-57.4 14.4-109.8-26-144.7-24.5-21.2-49.7-26.3-72.7-21.7-21.4 4.3-41.9 18-58.2 40-40.3 54.2-56 166.9.9 258.9-25.8 31.8-46.3 52.9-46.3 52.9-12.6 13-12.2 33.8.8 46.4s33.8 12.2 46.4-.8c0 0 17.7-18.4 41.4-47.2 19.7 18.3 43.6 34.7 72.3 48.3-4 27.8-6.1 56.1-6.1 84.7 0 222.3 123.6 421.1 317.6 549.5v154.5c0 76.7 62.2 138.9 138.9 138.9h62c76.7 0 138.9-62.2 138.9-138.9v-20.2c56.5 10.1 115 15.5 175.1 15.5 70.2 0 138.3-7.3 203.3-21v12.1c0 36.8 14.6 72.2 40.7 98.2 26.1 26.1 61.4 40.7 98.2 40.7h62c36.9 0 72.2-14.6 98.2-40.7 26.1-26.1 40.7-61.4 40.7-98.2v-160.4c130.7-94.1 199.5-196.9 237.7-342l89.1-17.4c40.3-7.9 69.3-43.2 69.3-84.2v-176.6c.3-38.4-25-71.9-61.7-82.5zm-1774.8-70.4c-20.5-46.9-19.3-97.3-5.9-134.2 10.6-29 27.6-53.5 49.3-34.8 12 10.4 15.1 24.7 14 40.5-1.6 22.7-11.3 47.8-24.2 73-9.6 18.9-21.1 37.7-33.2 55.5zm1475.8 167.1c-36.2 0-65.6-29.4-65.6-65.6s29.4-65.6 65.6-65.6 65.6 29.4 65.6 65.6c.1 36.2-29.3 65.6-65.6 65.6z" fill="#969696"/>
</svg>