<svg id="Layer_1" width="18pt" height="18pt" viewBox="0 0 512 512" xmlns="http://www.w3.org/2000/svg" data-name="Layer 1">
    <path d="m402.094 80.393a19.088 19.088 0 0 1 19.052 19.052v179.926a67.983 67.983 0 0 0 -22.716-6.6v-162.163a7.5 7.5 0 0 0 -7.5-7.5h-76.488v-17.715a20.008 20.008 0 0 0 -.632-5zm-11.164 206.965c29.227 0 52.92 23.4 52.92 52.271s-23.693 52.271-52.92 52.271-52.92-23.4-52.92-52.271 23.693-52.271 52.92-52.271zm-87.874 213.642h175.749v-42.11a75.011 75.011 0 0 0 -43.857-68.033 68.407 68.407 0 0 1 -88.035 0 75.011 75.011 0 0 0 -43.857 68.033zm-38.295-420.607h29.681a5.01 5.01 0 0 1 5 5v33.813a5.009 5.009 0 0 1 -5 5h-134.542a5.009 5.009 0 0 1 -5-5v-33.813a5.01 5.01 0 0 1 5-5h29.681a13.878 13.878 0 0 0 11.634-21.5 30.98 30.98 0 1 1 51.911 0 13.878 13.878 0 0 0 11.635 21.5zm23.295 420.607v-22.716h-224.645a7.5 7.5 0 0 1 -7.5-7.5v-360.176a7.5 7.5 0 0 1 7.5-7.5h76.489v-17.715a20.008 20.008 0 0 1 .632-5h-88.285a19.088 19.088 0 0 0 -19.047 19.052v382.5a19.088 19.088 0 0 0 19.047 19.055zm26.385-382.892v1.1a20.015 20.015 0 0 1 -20 20h-134.541a20.016 20.016 0 0 1 -20-20v-1.1h-68.989v345.176h217.145v-4.394a89.341 89.341 0 0 1 2.307-20.217h-112.023a7.5 7.5 0 0 1 0-15h116.949a90.192 90.192 0 0 1 14-22.615h-84.734a7.5 7.5 0 0 1 0-15h100.938a90.269 90.269 0 0 1 10.681-6.628 66.926 66.926 0 0 1 -8.779-15.987h-149.055a7.5 7.5 0 0 1 0-15h145.251a67.135 67.135 0 0 1 .853-22.615h-99.889a7.5 7.5 0 0 1 0-15h104.982a67.587 67.587 0 0 1 17.6-22.614h-168.797a7.5 7.5 0 0 1 0-15h169.52a7.508 7.508 0 0 1 7.3 9.225 67.93 67.93 0 0 1 28.269-9.67v-154.661zm-155.241 281.579-29.831 34.8a7.5 7.5 0 0 1 -11.491.427l-16.963-18.891a7.489 7.489 0 0 1 11.133-10.02l11.271 12.553 24.514-28.6a7.48 7.48 0 1 1 11.367 9.727zm0-75.229-29.831 34.8a7.5 7.5 0 0 1 -11.491.427l-16.963-18.885a7.489 7.489 0 0 1 11.133-10.019l11.271 12.552 24.514-28.6a7.48 7.48 0 1 1 11.367 9.727zm0-75.23-29.831 34.8a7.5 7.5 0 0 1 -11.491.427l-16.963-18.891a7.489 7.489 0 1 1 11.133-10.019l11.271 12.555 24.514-28.6a7.48 7.48 0 1 1 11.367 9.727zm0-75.23-29.831 34.8a7.5 7.5 0 0 1 -11.491.426l-16.963-18.891a7.489 7.489 0 0 1 11.133-10.019l11.271 12.552 24.514-28.6a7.48 7.48 0 0 1 11.367 9.734zm188.66 76.6h-123.3a7.5 7.5 0 0 1 0-15h123.3a7.5 7.5 0 0 1 0 15zm0-37.615h-169.52a7.5 7.5 0 0 1 0-15h169.52a7.5 7.5 0 0 1 0 15zm0-37.615h-123.3a7.5 7.5 0 0 1 0-15h123.3a7.5 7.5 0 0 1 0 15z" fill="#FFFFFF" fill-rule="evenodd"/>
</svg>