<svg id="Layer_1" enable-background="new 0 0 512 512" width="18pt" height="18pt" viewBox="0 0 512 512" xmlns="http://www.w3.org/2000/svg">
    <path d="m430.126 482.643c-15.08 12.999-34.716 20.857-56.191 20.857s-41.112-7.858-56.191-20.857c2.89-13.416 11.68-24.704 23.491-30.993 8.524 8.005 20.033 12.916 32.7 12.916s24.176-4.911 32.7-12.916c11.811 6.289 20.601 17.578 23.491 30.993zm-139.636-122.332c-4.022 5.869-7.44 12.184-10.168 18.854h-97.724c-4.142 0-7.5 3.358-7.5 7.5s3.358 7.5 7.5 7.5h92.923c-1.566 6.654-2.476 13.561-2.654 20.65h-186.207v-309.165h59.844c.077 10.901 8.959 19.738 19.878 19.738h120.331c10.919 0 19.802-8.836 19.878-19.738h59.843v210.928c-8.377.616-16.471 2.252-24.158 4.785.256-.755.394-1.564.394-2.406 0-4.142-3.358-7.5-7.5-7.5h-152.571c-4.142 0-7.5 3.358-7.5 7.5s3.358 7.5 7.5 7.5h147.127c-9.902 4.822-18.898 11.215-26.665 18.854h-78.867c-4.142 0-7.5 3.358-7.5 7.5s3.358 7.5 7.5 7.5zm52.181-75.209c0-4.142-3.358-7.5-7.5-7.5h-110.978c-4.142 0-7.5 3.358-7.5 7.5s3.358 7.5 7.5 7.5h110.977c4.142.001 7.501-3.358 7.501-7.5zm-125.978-135.417c0 4.142 3.358 7.5 7.5 7.5h110.977c4.142 0 7.5-3.358 7.5-7.5s-3.358-7.5-7.5-7.5h-110.977c-4.142 0-7.5 3.358-7.5 7.5zm-41.595 33.855c0 4.142 3.358 7.5 7.5 7.5h152.572c4.142 0 7.5-3.358 7.5-7.5s-3.358-7.5-7.5-7.5h-152.571c-4.142-.001-7.501 3.358-7.501 7.5zm160.072 26.354h-110.977c-4.142 0-7.5 3.358-7.5 7.5s3.358 7.5 7.5 7.5h110.977c4.142 0 7.5-3.358 7.5-7.5.001-4.142-3.358-7.5-7.5-7.5zm-160.072 41.354c0 4.142 3.358 7.5 7.5 7.5h152.572c4.142 0 7.5-3.358 7.5-7.5s-3.358-7.5-7.5-7.5h-152.571c-4.142 0-7.501 3.358-7.501 7.5zm-9.978 97.018c-3.139-2.686-7.861-2.318-10.547.821l-21.507 25.091-9.575-10.664c-2.767-3.074-7.502-3.323-10.576-.557s-3.323 7.502-.557 10.576l15.267 17.002c3.132 3.48 8.647 3.24 11.491-.427l26.825-31.295c2.685-3.138 2.318-7.861-.821-10.547zm0-67.708c-3.139-2.686-7.861-2.318-10.547.82l-21.507 25.091-9.575-10.664c-2.767-3.074-7.502-3.323-10.576-.557-3.074 2.767-3.323 7.502-.557 10.576l15.267 17.002c3.132 3.48 8.647 3.241 11.491-.427l26.825-31.295c2.685-3.138 2.318-7.86-.821-10.546zm0-67.708c-3.139-2.686-7.861-2.319-10.547.82l-21.507 25.091-9.575-10.664c-2.767-3.074-7.502-3.323-10.576-.557s-3.323 7.502-.557 10.576l15.267 17.002c3.132 3.48 8.647 3.24 11.491-.427l26.825-31.295c2.685-3.138 2.318-7.861-.821-10.546zm0-67.709c-3.139-2.686-7.861-2.318-10.547.82l-21.507 25.091-9.575-10.664c-2.767-3.074-7.502-3.323-10.576-.557s-3.323 7.502-.557 10.576l15.267 17.003c3.132 3.48 8.647 3.241 11.491-.427l26.825-31.295c2.685-3.139 2.318-7.861-.821-10.547zm-85.96 284.675c-4.142 0-7.5-3.358-7.5-7.5v-324.166c0-4.142 3.358-7.5 7.5-7.5h67.343v-14.815c0-1.684.211-3.318.606-4.88h-77.997c-9.445 0-17.147 7.703-17.147 17.147v344.262c0 9.445 7.702 17.147 17.147 17.147h208.932c-2.112-6.31-3.617-12.899-4.45-19.695zm327.341-12.416c0-17.765-14.58-32.166-32.566-32.166s-32.566 14.401-32.566 32.166 14.58 32.166 32.566 32.166 32.566-14.401 32.566-32.166zm-32.566-86.1c-47.558 0-86.101 38.542-86.1 86.1 0 19.883 6.74 38.187 18.055 52.76 5.056-12.923 14.363-23.631 26.095-30.514-3.582-6.628-5.615-14.201-5.615-22.246 0-26.049 21.296-47.166 47.566-47.166s47.564 21.117 47.564 47.166c0 8.045-2.033 15.619-5.616 22.246 11.731 6.883 21.039 17.59 26.095 30.514 11.315-14.573 18.055-32.877 18.055-52.76.001-47.558-38.541-86.101-86.099-86.1zm-207.553-220.912h120.331c2.688 0 4.88-2.192 4.88-4.88v-29.673c0-2.688-2.192-4.88-4.88-4.88h-26.334c-9.964 0-15.92-11.005-10.471-19.347 2.859-4.377 4.521-9.607 4.521-15.226 0-15.399-12.483-27.882-27.882-27.882s-27.882 12.483-27.882 27.882c0 5.619 1.662 10.849 4.521 15.226 5.449 8.342-.507 19.347-10.471 19.347h-26.334c-2.688 0-4.88 2.192-4.88 4.88v29.673c.001 2.688 2.193 4.88 4.881 4.88zm140.211-19.739h67.342c4.142 0 7.5 3.358 7.5 7.5v218.428c6.772.498 13.358 1.662 19.695 3.427v-231.902c0-9.444-7.703-17.147-17.147-17.147h-77.996c.395 1.562.606 3.197.606 4.88z" fill="#FFFFFF"/>
</svg>