<svg id="Layer_1" width="18pt" height="18pt" viewBox="0 0 512 512" xmlns="http://www.w3.org/2000/svg" data-name="Layer 1">
    <path d="m64.14 309.66a64 64 0 1 1 64 63.95 64 64 0 0 1 -64-63.95zm255.81 0a64 64 0 1 0 64-64 64 64 0 0 0 -63.95 64zm-191.86 73.95a112.09 112.09 0 0 0 -112 106.86 5 5 0 0 0 5 5.23c21.57 0 214.09 2.09 217.56-1.54a4.83 4.83 0 0 0 1.38-3.69 112.09 112.09 0 0 0 -111.94-106.86zm255.82 0a112.09 112.09 0 0 0 -112 106.86 5 5 0 0 0 5 5.23h214a5 5 0 0 0 5-5.23 112.09 112.09 0 0 0 -112-106.86zm-110.61-122.55a124.28 124.28 0 0 1 -34.6 0 5.74 5.74 0 0 1 -5-5.7v-17.22a101 101 0 0 1 -32.11-13.32l-12.13 12.18a5.72 5.72 0 0 1 -7.53.53 124.14 124.14 0 0 1 -24.47-24.47 5.72 5.72 0 0 1 .52-7.53l12.18-12.18a101 101 0 0 1 -13.32-32.11h-17.22a5.72 5.72 0 0 1 -5.69-5 124.35 124.35 0 0 1 0-34.61 5.72 5.72 0 0 1 5.7-5h17.21a100.87 100.87 0 0 1 13.32-32.11l-12.16-12.08a5.73 5.73 0 0 1 -.53-7.53 124.19 124.19 0 0 1 24.48-24.47 5.72 5.72 0 0 1 7.53.53l12.17 12.17a101.27 101.27 0 0 1 32.11-13.31v-17.22a5.73 5.73 0 0 1 5-5.7 124.28 124.28 0 0 1 34.6 0 5.73 5.73 0 0 1 5 5.7v17.22a101.27 101.27 0 0 1 32.11 13.31l12.07-12.14a5.72 5.72 0 0 1 7.53-.53 123.87 123.87 0 0 1 24.47 24.47 5.72 5.72 0 0 1 -.52 7.53l-12.18 12.15a101 101 0 0 1 13.32 32.11h17.21a5.72 5.72 0 0 1 5.7 5 124.35 124.35 0 0 1 0 34.61 5.72 5.72 0 0 1 -5.7 5h-17.22a101 101 0 0 1 -13.31 32.11l12.16 12.08a5.72 5.72 0 0 1 .52 7.53 124.14 124.14 0 0 1 -24.47 24.47 5.72 5.72 0 0 1 -7.53-.53l-12.17-12.18a101 101 0 0 1 -32.11 13.32v17.22a5.74 5.74 0 0 1 -4.94 5.7zm-17.3-59.29a62.79 62.79 0 1 0 -62.78-62.77 62.79 62.79 0 0 0 62.78 62.77z" fill="#FFFFFF"/>
</svg>