<svg id="Layer_1" enable-background="new 0 0 512 512" width="18pt" height="18pt" viewBox="0 0 512 512" xmlns="http://www.w3.org/2000/svg"><path d="m182.992 118.86v-36.26c0-2.203 1.797-4 4-4h31.035c11.184 0 17.869-12.353 11.753-21.716-3.209-4.913-5.075-10.783-5.075-17.09 0-17.283 14.011-31.294 31.295-31.294s31.295 14.011 31.295 31.295c0 6.307-1.866 12.177-5.075 17.09-6.117 9.363.569 21.716 11.753 21.716h31.035c2.203 0 4 1.797 4 4v36.26c0 2.203-1.797 4-4 4h-138.016c-2.203-.001-4-1.798-4-4.001zm249.716-40.259h-89.125c.277 1.29.424 2.628.424 4v19.024h77.423c4.142 0 7.5 3.358 7.5 7.5v363.851c0 4.142-3.358 7.5-7.5 7.5h-330.861c-4.142 0-7.5-3.358-7.5-7.5v-363.851c0-4.142 3.358-7.5 7.5-7.5h77.423v-19.024c0-1.372.147-2.71.424-4h-89.124c-10.601 0-19.246 8.646-19.246 19.246v386.407c0 10.601 8.645 19.246 19.246 19.246h353.417c10.601 0 19.246-8.645 19.246-19.246v-386.407c0-10.601-8.645-19.246-19.247-19.246zm-264.716 40.259c0 10.482 8.518 19 19 19h138.017c10.482 0 19-8.518 19-19v-2.236h69.922v348.851h-315.862v-348.85h69.923zm26.322 315.615c0-9.095-4.229-17.249-10.816-22.596-6.475 6.531-15.477 10.569-25.383 10.569s-18.908-4.037-25.383-10.569c-6.587 5.347-10.816 13.502-10.816 22.597v15.652c0 1.247 1.017 2.263 2.263 2.263h67.871c1.247 0 2.264-1.017 2.264-2.263zm-36.199-27.028c11.379 0 20.604-9.111 20.604-20.351s-9.225-20.351-20.604-20.351-20.604 9.111-20.604 20.351 9.224 20.351 20.604 20.351zm36.199-84.622c0-9.095-4.229-17.249-10.816-22.596-6.475 6.531-15.477 10.569-25.383 10.569s-18.908-4.037-25.383-10.569c-6.587 5.347-10.816 13.502-10.816 22.596v15.652c0 1.247 1.017 2.264 2.263 2.264h67.871c1.247 0 2.264-1.017 2.264-2.264zm-36.199-27.027c11.379 0 20.604-9.111 20.604-20.351s-9.225-20.351-20.604-20.351-20.604 9.111-20.604 20.351 9.224 20.351 20.604 20.351zm114.887-128.529c0 4.142 3.358 7.5 7.5 7.5h107.419c4.142 0 7.5-3.358 7.5-7.5s-3.358-7.5-7.5-7.5h-107.419c-4.142 0-7.5 3.358-7.5 7.5zm-40.262 37.999c0 4.142 3.358 7.5 7.5 7.5h147.681c4.142 0 7.5-3.358 7.5-7.5s-3.358-7.5-7.5-7.5h-147.681c-4.141 0-7.5 3.358-7.5 7.5zm155.181 66.151h-107.419c-4.142 0-7.5 3.358-7.5 7.5s3.358 7.5 7.5 7.5h107.419c4.142 0 7.5-3.358 7.5-7.5s-3.358-7.5-7.5-7.5zm-155.181 45.498c0 4.142 3.358 7.5 7.5 7.5h147.681c4.142 0 7.5-3.358 7.5-7.5s-3.358-7.5-7.5-7.5h-147.681c-4.141 0-7.5 3.359-7.5 7.5zm155.181 66.151h-107.419c-4.142 0-7.5 3.358-7.5 7.5s3.358 7.5 7.5 7.5h107.419c4.142 0 7.5-3.358 7.5-7.5s-3.358-7.5-7.5-7.5zm-155.181 45.499c0 4.142 3.358 7.5 7.5 7.5h147.681c4.142 0 7.5-3.358 7.5-7.5s-3.358-7.5-7.5-7.5h-147.681c-4.141 0-7.5 3.358-7.5 7.5zm-49.242-239.987c-6.475 6.531-15.477 10.569-25.383 10.569s-18.908-4.037-25.383-10.569c-6.587 5.347-10.816 13.502-10.816 22.597v15.652c0 1.247 1.017 2.264 2.263 2.264h67.871c1.247 0 2.264-1.017 2.264-2.264v-15.652c0-9.096-4.229-17.25-10.816-22.597zm-25.383-45.134c-11.379 0-20.604 9.112-20.604 20.351 0 11.24 9.225 20.351 20.604 20.351s20.604-9.111 20.604-20.351c0-11.239-9.225-20.351-20.604-20.351z" fill="#FFFFFF"/></svg>