<svg id="Flat" height="60px" viewBox="0 0 512 512" width="60px" xmlns="http://www.w3.org/2000/svg"><path d="m128 320a32 32 0 0 0 32 32h16v-152h-48z" fill="#e0b999"/><path d="m48 400h416v88h-416z" fill="#c3c6c7"/><path d="m160 96h192v344h-192z" fill="#35a872"/><circle cx="256" cy="272" fill="#3dc285" r="80"/><path d="m312 272a8 8 0 0 1 -8 8h-8v8a8 8 0 0 1 -16 0v-16a8 8 0 0 0 -16 0 24 24 0 0 1 -46.62 8h-9.38a8 8 0 0 1 0-16h8v-8a8 8 0 0 1 16 0v16a8 8 0 0 0 16 0 24 24 0 0 1 46.62-8h9.38a8 8 0 0 1 8 8z" fill="#35a872"/><g fill="#3dc285"><path d="m352 168a72.006 72.006 0 0 1 -72-72h72z"/><path d="m352 440h-72a72.006 72.006 0 0 1 72-72z"/><path d="m232 440h-72v-72a72.006 72.006 0 0 1 72 72z"/></g><path d="m120 24h184v40h-184z" fill="#2d85cc" transform="matrix(-1 0 0 -1 424 88)"/><path d="m456 304-32 56-32-56h16v-112h32v112z" fill="#35a872"/><path d="m464 448v16h-80a8 8 0 0 1 -8-8v-16h-240v16a8 8 0 0 1 -8 8h-80v-16h72v-16a8 8 0 0 1 8-8h256a8 8 0 0 1 8 8v16z" fill="#9aa3a8"/><path d="m128 64v32l-16 96 58.715 74.155a17.142 17.142 0 0 0 21.343 4.57 17.142 17.142 0 0 0 8.377-20.577l-24.435-74.148a64 64 0 0 0 64-64v-16h56v-32z" fill="#f0c6a4"/></svg>