<svg id="Layer_1" enable-background="new 0 0 66 66" width="60px" height="60px" viewBox="0 0 66 66" xmlns="http://www.w3.org/2000/svg">
    <g>
        <g>
            <g>
                <path d="m39.1 8.3h9.7v6.2h-9.7z" fill="#a3cd44"/>
            </g>
            <path d="m48.7 8.3h-9.6v3.1l9.6.1z" fill="#6fac43"/>
            <g>
                <path d="m32.5 11.4 6.8 6.8v-13.7z" fill="#a3cd44"/>
                <path d="m32.5 11.4h6.8v6.8z" fill="#6fac43"/>
            </g>
        </g>
        <g>
            <g>
                <path d="m15.7 51.5h9.7v6.2h-9.7z" fill="#a3cd44"/>
            </g>
            <path d="m15.7 57.7h9.7v-3.1l-9.7-.1z" fill="#6fac43"/>
            <g>
                <path d="m32 54.6-6.9-6.8v13.7z" fill="#a3cd44"/>
                <path d="m32 54.6h-6.9v-6.8z" fill="#6fac43"/>
            </g>
        </g>
        <g>
            <path d="m65 55.7v-33.3c0-1.5-1.2-2.7-2.7-2.7h-19.3c-1.5 0-2.7 1.2-2.7 2.7v33.3c0 1.5 1.2 2.7 2.7 2.7h19.3c1.5 0 2.7-1.2 2.7-2.7z" fill="#1e87b7"/>
            <path d="m54.3 19.7h5.5v38.7h-5.5z" fill="#3b4c56"/>
            <path d="m46.3 25.1h4.2v19.3h-4.2z" fill="#fff"/>
            <path d="m46.3 35.1h4.2v9.3h-4.2z" fill="#e6e6e8"/>
            <g fill="#283a48">
                <path d="m59.8 56.4-5.5-5.6v-5.1l5.5 5.5z"/>
                <path d="m59.8 44.2-5.5-5.5v-5.1l5.5 5.5z"/>
                <path d="m59.8 32.1-5.5-5.5v-5.1l5.5 5.5z"/>
            </g>
        </g>
        <g>
            <g>
                <circle cx="32.8" cy="33.3" fill="#fad22c" r="12.5"/>
                <path d="m32.8 20.9v3.5c5 0 9 4 9 9s-4 9-9 9v3.5c6.9 0 12.5-5.6 12.5-12.5s-5.6-12.5-12.5-12.5z" fill="#e0b624"/>
                <path d="m23.8 33.3c0 5 4 9 9 9v-18c-4.9.1-9 4.1-9 9z" fill="#e0b624"/>
                <path d="m41.8 33.3c0-5-4-9-9-9v18c5 0 9-4 9-9z" fill="#fad22c"/>
            </g>
            <g>
                <path d="m32.5 39.2v-1c-1.3-.1-2.4-.6-3.5-1.5l1-1.2c.8.7 1.6 1.1 2.4 1.2v-2.7c-1.8-.4-3.1-1-3.1-2.8 0-1.7 1.3-2.7 3.1-2.8v-.7h.9v.7c1 .1 2 .4 2.9 1.1l-.9 1.3c-.6-.4-1.3-.7-2-.8v2.6c1.8.4 3.1 1.1 3.1 2.9s-1.4 2.8-3.2 2.8v1h-.7zm-1.3-8.3c0 .8.6 1 1.4 1.3v-2.4c-.8 0-1.4.4-1.4 1.1zm3.7 4.5c0-.8-.6-1.1-1.5-1.3v2.5c.8 0 1.5-.4 1.5-1.2z" fill="#fff"/>
            </g>
        </g>
        <g>
            <path d="m1 7.7v33.3c0 1.5 1.2 2.7 2.7 2.7h19.3c1.5 0 2.7-1.2 2.7-2.7v-33.3c0-1.5-1.2-2.7-2.7-2.7h-19.3c-1.5 0-2.7 1.2-2.7 2.7z" fill="#e8664a"/>
            <path d="m6.2 5h5.5v38.7h-5.5z" fill="#3b4c56"/>
            <path d="m15.6 19.1h4.2v19.3h-4.2z" fill="#fff"/>
            <path d="m15.6 19.1h4.2v9.3h-4.2z" fill="#e6e6e8"/>
            <g fill="#283a48">
                <path d="m6.2 7.1 5.5 5.5v5.1l-5.5-5.5z"/>
                <path d="m6.2 19.2 5.5 5.5v5.1l-5.5-5.5z"/>
                <path d="m6.2 31.3 5.5 5.5v5.1l-5.5-5.5z"/>
            </g>
        </g>
    </g>
</svg>