<?xml version="1.0" encoding="UTF-8"?>
<svg xmlns="http://www.w3.org/2000/svg" viewBox="0 0 64 64" width="60px" height="60px"><g id="_24-Tax" data-name="24-Tax"><path d="M30,19H16S3,30,3,44v0A11,11,0,0,0,14,55H32A11,11,0,0,0,43,44v0C43,30,30,19,30,19Z" fill="#81c784"/><path d="M43,44A10.99375,10.99375,0,0,1,32,55H14a10.99589,10.99589,0,0,1-9.77-5.94A11.52074,11.52074,0,0,0,12,52H27c6.08,0,11-4.51,11-10.08,0-6.42-3.25-12.15-6.5-16.28A42.45671,42.45671,0,0,0,25,19h5a44.48353,44.48353,0,0,1,6.5,7.25C39.75,30.75,43,37,43,44Z" fill="#66bb6a"/><path d="M31,3c-2,0-2,1-4,1s-2-1-4-1-2,1-4,1-2-1-4-1c-1,0-2,1-2,4a11.0432,11.0432,0,0,0,3,7H30a11.0432,11.0432,0,0,0,3-7C33,4,32,3,31,3Z" fill="#81c784"/><path d="M33,7a11.0432,11.0432,0,0,1-3,7H16a11.71978,11.71978,0,0,1-2.03-3H22.4464a4.98749,4.98749,0,0,0,4.44306-2.70033A9.48142,9.48142,0,0,0,28,4V3.89C29.08,3.64,29.4,3,31,3,32,3,33,4,33,7Z" fill="#66bb6a"/><path d="M23,36a2,2,0,1,1,2-2,1,1,0,0,0,2,0,3.99624,3.99624,0,0,0-3-3.858V29a1,1,0,0,0-2,0v1.142A3.99155,3.99155,0,0,0,23,38a2,2,0,1,1-2,2,1,1,0,0,0-2,0,3.99624,3.99624,0,0,0,3,3.858V45a1,1,0,0,0,2,0V43.858A3.99155,3.99155,0,0,0,23,36Z" fill="#eee"/><rect x="13" y="14" width="20" height="5" rx="2.5" fill="#ffb74d"/><path d="M33,16.5A2.49235,2.49235,0,0,1,30.5,19h-15A2.50091,2.50091,0,0,1,13,16.5a2.21453,2.21453,0,0,1,.04-.45A2.49916,2.49916,0,0,0,15,17H25.5A2.49235,2.49235,0,0,0,28,14.5a2.73137,2.73137,0,0,0-.05-.5H30.5A2.50091,2.50091,0,0,1,33,16.5Z" fill="#ffa726"/><circle cx="46" cy="46" r="15" fill="#ffb74d"/><path d="M61,46A14.99566,14.99566,0,0,1,35.95,57.13a15.00011,15.00011,0,0,0,15.1-25.26A15.01662,15.01662,0,0,1,61,46Z" fill="#ffa726"/><path d="M41.5,45A3.5,3.5,0,1,1,45,41.5,3.50424,3.50424,0,0,1,41.5,45Zm0-5A1.5,1.5,0,1,0,43,41.5,1.50164,1.50164,0,0,0,41.5,40Z" fill="#eee"/><path d="M50.5,54A3.5,3.5,0,1,1,54,50.5,3.50424,3.50424,0,0,1,50.5,54Zm0-5A1.5,1.5,0,1,0,52,50.5,1.50164,1.50164,0,0,0,50.5,49Z" fill="#eee"/><path d="M54,50.5c0-.01215-.00348-.02338-.0036-.03552a15.05344,15.05344,0,0,1-2.72449,3.4433A3.502,3.502,0,0,0,54,50.5Z" fill="#e0e0e0"/><path d="M40,53a1,1,0,0,1-.707-1.707l12-12A.99989.99989,0,0,1,52.707,40.707l-12,12A.99676.99676,0,0,1,40,53Z" fill="#eee"/></g></svg>
