<svg id="Capa_1" enable-background="new 0 0 512 512" height="60px" viewBox="0 0 512 512" width="60px" xmlns="http://www.w3.org/2000/svg"><g><circle cx="256" cy="105" fill="#ffba00" r="105"/><path d="m361 105c0-57.897-47.103-105-105-105v210c57.897 0 105-47.103 105-105z" fill="#f5a000"/><circle cx="256" cy="105" fill="#ffea98" r="75"/><path d="m331 105c0-41.355-33.645-75-75-75v150c41.355 0 75-33.645 75-75z" fill="#ffd845"/><path d="m267.352 97.436c-1.446-.511-2.92-1.042-4.394-1.592v-26.15c2.487.8 3.879 1.944 4.168 2.204 2.441 3.111 6.918 3.805 10.197 1.51 3.394-2.375 4.219-7.052 1.844-10.445-1.697-2.424-7.276-7.25-16.209-8.685v-4.278c0-4.143-3.358-7.5-7.5-7.5s-7.5 3.357-7.5 7.5v5.163c-.566.147-1.139.307-1.719.481-9.185 2.767-16.045 10.611-17.904 20.473-1.703 9.038 1.224 17.778 7.639 22.81 3.098 2.43 6.887 4.657 11.984 6.979v33.806c-3.794-.479-6.592-1.687-11.008-4.575-3.465-2.268-8.114-1.297-10.382 2.171-2.268 3.466-1.295 8.114 2.171 10.382 7.513 4.915 12.784 6.588 19.219 7.104v5.206c0 4.143 3.358 7.5 7.5 7.5s7.5-3.357 7.5-7.5v-5.91c13.06-3.189 21.436-14.289 23.276-25.235 2.386-14.188-5.026-26.521-18.882-31.419zm-22.122-10.312c-1.961-1.538-2.808-4.769-2.155-8.229.504-2.673 2.041-5.785 4.882-7.661v17.762c-.991-.61-1.912-1.233-2.727-1.872zm26.211 39.244c-.761 4.525-3.638 9.298-8.484 11.82v-26.38c9.501 3.71 8.907 12.049 8.484 14.56z" fill="#ffba00"/><path d="m267.352 97.436c-1.446-.511-2.92-1.042-4.394-1.592v-26.15c2.487.8 3.879 1.944 4.168 2.204 2.441 3.111 6.918 3.805 10.197 1.51 3.394-2.375 4.219-7.052 1.844-10.445-1.697-2.424-7.276-7.25-16.209-8.685v-4.278c0-3.959-3.07-7.194-6.958-7.473v124.945c3.888-.279 6.958-3.513 6.958-7.473v-5.91c13.06-3.189 21.436-14.289 23.276-25.235 2.386-14.187-5.026-26.52-18.882-31.418zm4.089 28.932c-.761 4.525-3.638 9.298-8.484 11.82v-26.38c9.501 3.71 8.907 12.049 8.484 14.56z" fill="#f5a000"/><g><path d="m394.088 277.183-78.271-78.271 11.132-10.601c35.689-33.981 92.338-31.267 94.73-31.142 7.635.421 13.731 6.517 14.151 14.152.132 2.394 2.841 59.04-31.142 94.729z" fill="#ffbca7"/><path d="m117.912 277.183-10.6-11.132c-33.983-35.688-31.274-92.335-31.142-94.729.421-7.635 6.517-13.731 14.151-14.152 2.392-.131 59.041-2.841 94.73 31.142l11.132 10.601z" fill="#ffcbbc"/><path d="m376 512h-60c-7.643 0-14.064-5.747-14.908-13.343l-6.223-56.004 96.131-39.846v94.193c0 8.284-6.716 15-15 15z" fill="#ffbca7"/><path d="m196 512h-60c-8.284 0-15-6.716-15-15v-94.193l96.131 39.846-6.223 56.004c-.844 7.596-7.265 13.343-14.908 13.343z" fill="#ffcbbc"/><path d="m256 472c-50.812 0-91.64-9.862-121.353-29.313-17.105-11.197-30.344-25.555-39.349-42.675-9.487-18.036-14.298-39.237-14.298-63.012 0-96.495 78.505-175 175-175s175 78.505 175 175c0 23.775-4.811 44.976-14.298 63.012-9.005 17.12-22.244 31.478-39.349 42.675-29.713 19.451-70.541 29.313-121.353 29.313z" fill="#ffddce"/><path d="m377.353 442.687c17.105-11.197 30.344-25.555 39.349-42.675 9.487-18.036 14.298-39.237 14.298-63.012 0-96.495-78.505-175-175-175v310c50.812 0 91.64-9.862 121.353-29.313z" fill="#ffcbbc"/><path d="m256 412c-38.598 0-70-26.916-70-60s31.402-60 70-60 70 26.916 70 60-31.402 60-70 60z" fill="#ffcbbc"/><path d="m326 352c0-33.084-31.402-60-70-60v120c38.598 0 70-26.916 70-60z" fill="#ffbca7"/><circle cx="191" cy="262" fill="#646e7d" r="15"/><circle cx="321" cy="262" fill="#465064" r="15"/></g></g></svg>