<svg fill="none" height="14pt" viewBox="0 0 120 120" width="14pt" xmlns="http://www.w3.org/2000/svg">
    <g fill="rgb(0,0,0)">
        <path d="m19 9c-2.7614 0-5 2.2386-5 5v13h72v-13c0-2.7614-2.2386-5-5-5z" fill="#969696"/>
        <path clip-rule="evenodd" d="m86 31h-72v74c0 2.761 2.2386 5 5 5h62c2.7614 0 5-2.239 5-5v-21.9708l-5.4294 5.4294c-1.0396 1.0395-2.2797 1.7769-3.6002 2.2023l-10.6617 5.3956c-6.8948 3.4893-14.2397-3.8555-10.7503-10.7503l5.6708-11.2056c.2314-.5744.5244-1.13.8786-1.6563.5679-.9112 1.2773-1.6895 2.0836-2.32l21.8086-21.8086zm-57 18c-1.1046 0-2 .8954-2 2s.8954 2 2 2h34c1.1046 0 2-.8954 2-2s-.8954-2-2-2zm-2 19c0-1.1046.8954-2 2-2h20c1.1046 0 2 .8954 2 2s-.8954 2-2 2h-20c-1.1046 0-2-.8954-2-2zm2 16c-1.1046 0-2 .8954-2 2s.8954 2 2 2h16c1.1046 0 2-.8954 2-2s-.8954-2-2-2z" fill="#969696" fill-rule="evenodd"/>
        <path d="m66.9381 73.0345c-.8328.8327-1.6292 1.5536-2.0512 2.697l-5.7595 11.3809c-1.7447 3.4474 1.9277 7.1198 5.3751 5.3751l10.7948-5.463c.8485-.4293 1.7548-.7042 2.4449-1.3943l22.7108-22.7104-11.7003-11.6999z" fill="#969696"/>
        <path d="m103.461 43.5823 4.629 4.6288c1.908 1.9076 1.954 5.1169 0 7.0711l-4.809 4.8092-11.6999-11.6999 4.8093-4.8092c.0152-.0153.0305-.0304.0459-.0454 1.9365-1.888 5.1447-1.8349 7.0247.0454z" fill="#969696"/>
    </g>
</svg>