<svg clip-rule="evenodd" fill-rule="evenodd" height="12pt" stroke-linejoin="round" stroke-miterlimit="2" viewBox="0 0 24 24" width="12pt" xmlns="http://www.w3.org/2000/svg">
    <g id="Icon">
        <path d="m20 4.25c-1.494 0-14.506 0-16 0-.729 0-1.429.29-1.945.805-.515.516-.805 1.216-.805 1.945v10c0 .729.29 1.429.805 1.945.516.515 1.216.805 1.945.805h16c.729 0 1.429-.29 1.945-.805.515-.516.805-1.216.805-1.945v-10c0-.729-.29-1.429-.805-1.945-.516-.515-1.216-.805-1.945-.805zm-11.061 8.023c.725-.374 1.22-1.13 1.22-2 0-1.242-1.008-2.25-2.25-2.25-1.241 0-2.25 1.008-2.25 2.25 0 .87.496 1.626 1.22 2-.106.004-.21.031-.305.079 0 0-.462.231-.857.428-.593.297-.967.903-.967 1.565v.882c0 .415.336.75.75.75h5c.414 0 .75-.335.75-.75v-.849c0-.692-.408-1.319-1.041-1.6-.452-.2-.996-.441-.996-.441-.086-.038-.179-.06-.274-.064zm4.561 2.227h5c.414 0 .75-.336.75-.75s-.336-.75-.75-.75h-5c-.414 0-.75.336-.75.75s.336.75.75.75zm0-3.5h2.5c.414 0 .75-.336.75-.75s-.336-.75-.75-.75h-2.5c-.414 0-.75.336-.75.75s.336.75.75.75z" fill="#969696"/>
    </g>
</svg>