<svg fill="none" height="8pt" viewBox="0 0 24 24" width="8pt" xmlns="http://www.w3.org/2000/svg">
    <g fill="#969696">
        <path d="m12.75 11c0-.4142-.3358-.75-.75-.75s-.75.3358-.75.75v6c0 .4142.3358.75.75.75s.75-.3358.75-.75z" fill="#969696"/>
        <path clip-rule="evenodd" d="m12 1.25c-5.93706 0-10.75 4.81294-10.75 10.75 0 5.9371 4.81294 10.75 10.75 10.75 5.9371 0 10.75-4.8129 10.75-10.75 0-5.93706-4.8129-10.75-10.75-10.75zm-9.25 10.75c0-5.10863 4.14137-9.25 9.25-9.25 5.1086 0 9.25 4.14137 9.25 9.25 0 5.1086-4.1414 9.25-9.25 9.25-5.10863 0-9.25-4.1414-9.25-9.25z" fill="#969696" fill-rule="evenodd"/>
        <path d="m13 8c0 .55228-.4477 1-1 1s-1-.44772-1-1 .4477-1 1-1 1 .44772 1 1z" fill="#969696"/>
    </g>
</svg>