<svg height="25pt" viewBox="0 0 64 64" width="25pt" xmlns="http://www.w3.org/2000/svg"><g id="i"><g><path d="m9.215 43.038c-2.053-3.894-3.215-8.33-3.215-13.038 0-15.464 12.536-28 28-28 1.55 0 3.07.126 4.552.368-6.281 3.373-10.552 10.004-10.552 17.632 0 11.046 8.954 20 20 20 5.26 0 10.045-2.03 13.616-5.35-1.529 9.147-7.492 16.793-15.605 20.651z" fill="#f1a141"/><path d="m28.161 22.571c-1.083-8.689 3.414-16.456 10.391-20.203-1.481-.242-3.002-.368-4.552-.368-.425 0-.847.009-1.267.028-19.323.861-28.924 23.593-17.024 38.84 1.893 2.425 4.079 4.61 6.506 6.502l23.542 7.845.48-.031c7.996-3.892 13.864-11.475 15.378-20.536-4.097 3.81-9.795 5.922-15.973 5.215-9.039-1.033-16.357-8.266-17.482-17.294z" fill="#ffbe51"/><path d="m28.413 42.987c1.049-.627 2.276-.987 3.587-.987 2.994 0 5.548 1.879 6.549 4.522.748-.335 1.578-.522 2.451-.522 3.314 0 6 2.686 6 6s-2.686 6-6 6c-.665 0-1.304-.108-1.902-.308-1.334 2.56-4.012 4.308-7.098 4.308-2.864 0-5.376-1.505-6.79-3.767-1.168 2.239-3.51 3.767-6.21 3.767-2.61 0-4.886-1.428-6.09-3.546-.902.352-1.883.546-2.91.546-4.418 0-8-3.582-8-8s3.582-8 8-8c1.188 0 2.315.259 3.329.723.981-3.309 4.044-5.723 7.671-5.723 3.353 0 6.224 2.062 7.413 4.987z" fill="#83d9f2"/><path d="m62 9c-3.866 0-7 3.134-7 7 0-3.866-3.134-7-7-7 3.866 0 7-3.134 7-7 0 3.866 3.134 7 7 7z" fill="#f1a141"/><path d="m46 18c0 2.761-2.239 5-5 5 2.761 0 5 2.239 5 5 0-2.761 2.239-5 5-5-2.761 0-5-2.239-5-5z" fill="#f1a141"/><path d="m41 46c-.873 0-1.703.187-2.451.522-1.001-2.643-3.555-4.522-6.549-4.522-1.311 0-2.538.36-3.587.987-1.19-2.925-4.061-4.987-7.413-4.987-3.627 0-6.691 2.414-7.671 5.723-1.013-.464-2.141-.723-3.329-.723-3.905 0-7.152 2.799-7.855 6.5.703 3.701 3.95 6.5 7.855 6.5 1.027 0 2.008-.193 2.91-.546 1.204 2.117 3.48 3.546 6.09 3.546 2.7 0 5.043-1.528 6.21-3.767 1.413 2.262 3.926 3.767 6.79 3.767 3.086 0 5.764-1.748 7.098-4.308.598.2 1.237.308 1.902.308 2.795 0 5.136-1.914 5.803-4.5-.667-2.586-3.009-4.5-5.803-4.5z" fill="#a4e9fe"/><g fill="#ffbe51"><path d="m46 18c0 1.643-.804 3.089-2.027 4 1.224.911 2.027 2.357 2.027 4 0-1.643.804-3.089 2.027-4-1.224-.911-2.027-2.357-2.027-4z"/><path d="m55 2c0 2.551-1.369 4.777-3.408 6 2.039 1.223 3.408 3.449 3.408 6 0-2.551 1.369-4.777 3.408-6-2.039-1.223-3.408-3.449-3.408-6z"/></g></g></g></svg>