<?xml version="1.0" encoding="iso-8859-1"?>
<!-- Generator: Adobe Illustrator 19.0.0, SVG Export Plug-In . SVG Version: 6.00 Build 0)  -->
<svg version="1.1" id="Capa_1" xmlns="http://www.w3.org/2000/svg" xmlns:xlink="http://www.w3.org/1999/xlink" x="0px" y="0px" width="60px" height="60px"
	 viewBox="0 0 512 512" style="enable-background:new 0 0 512 512;" xml:space="preserve">
<path style="fill:#FCE0A2;" d="M295.732,312.379c-9.251-1.859-15.907-9.986-15.907-19.423V248.3h-43.821l0,0h-43.821v44.656
	c0,9.436-6.656,17.563-15.907,19.423l-10.677,2.146v71.712h70.405l0,0h70.405v-71.712L295.732,312.379z"/>
<path style="fill:#F2CA91;" d="M237.162,248.3v61.155c0,9.437,6.656,17.563,15.907,19.423l53.341,13.002v-27.355l-10.677-2.146
	c-9.251-1.859-15.907-9.986-15.907-19.423V248.3H237.162z"/>
<path style="fill:#4CBAD8;" d="M386.971,336.457l-88.995-27.748c-2.076-0.647-4.337-0.224-6.038,1.13l-55.934,44.516l-55.934-44.516
	c-1.701-1.354-3.963-1.777-6.038-1.13l-88.995,27.748c-38.969,11.474-65.725,47.244-65.725,87.867v58.555
	c0,4.661,3.779,8.44,8.44,8.44h416.503c4.661,0,8.44-3.779,8.44-8.44v-58.555C452.696,383.701,425.94,347.931,386.971,336.457z"/>
<path style="fill:#37A6C4;" d="M386.971,336.457l-88.995-27.748c-2.076-0.647-4.337-0.224-6.038,1.13l-25.385,20.204l77.398,24.132
	c38.969,11.474,65.725,47.244,65.725,87.866v49.277h34.58c4.662,0,8.44-3.779,8.44-8.44v-58.555
	C452.696,383.701,425.94,347.931,386.971,336.457z"/>
<g>
	<path style="fill:#F2CA8F;" d="M347.495,201.707h-17.804v-51.634h17.804c9.175,0,16.612,7.438,16.612,16.612v18.409
		C364.108,194.27,356.67,201.707,347.495,201.707z"/>
	<path style="fill:#F2CA8F;" d="M124.513,201.707h17.804v-51.634h-17.804c-9.175,0-16.612,7.438-16.612,16.612v18.409
		C107.901,194.27,115.338,201.707,124.513,201.707z"/>
</g>
<path style="fill:#FCE0A2;" d="M236.004,283.3L236.004,283.3c-57.411,0-103.952-46.541-103.952-103.952v-29.214
	c0-57.411,46.541-103.952,103.952-103.952l0,0c57.411,0,103.952,46.541,103.952,103.952v29.214
	C339.956,236.759,293.415,283.3,236.004,283.3z"/>
<path style="fill:#F2CA91;" d="M236.004,46.182L236.004,46.182c-7.353,0-14.525,0.768-21.446,2.22
	c47.121,9.884,82.506,51.673,82.506,101.732v29.214c0,50.058-35.385,91.848-82.506,101.732c6.921,1.452,14.094,2.22,21.446,2.22l0,0
	c57.411,0,103.952-46.541,103.952-103.952v-29.214C339.956,92.723,293.415,46.182,236.004,46.182z"/>
<path style="fill:#F9A058;" d="M253.693,7.499h-35.377c-59.806,0-108.288,48.482-108.288,108.288v42.779
	c2.846-5.065,8.262-8.493,14.485-8.493h7.54c0.007-12.646,2.275-24.763,6.417-35.972c45.965-13.023,92.683,22.519,143.488,22.519
	c25.375,0,42.697-5.679,54.411-12.623l0.271-0.003c2.158,8.333,3.31,17.072,3.315,26.079h7.54c6.224,0,11.64,3.428,14.485,8.493
	v-42.779C361.981,55.981,313.499,7.499,253.693,7.499z"/>
<path style="fill:#EF8D43;" d="M253.693,7.499h-35.377c-1.258,0-2.51,0.029-3.758,0.072c58.065,1.981,104.53,49.668,104.53,108.216
	v15.757c6.794-2.11,12.512-4.719,17.281-7.546l0.271-0.003c2.158,8.333,3.31,17.072,3.315,26.079h7.54
	c6.224,0,11.64,3.428,14.485,8.493v-42.779C361.981,55.981,313.499,7.499,253.693,7.499z"/>
<circle style="fill:#E9F6FF;" cx="403.809" cy="415.63" r="88.87"/>
<path style="fill:#CCDFED;" d="M403.814,326.758c-7.443,0-14.67,0.92-21.578,2.644c38.654,9.642,67.293,44.588,67.293,86.228
	s-28.639,76.585-67.293,86.228c6.909,1.723,14.136,2.644,21.578,2.644c49.082,0,88.871-39.789,88.871-88.871
	S452.896,326.758,403.814,326.758z"/>
<g>
	<path style="fill:#2195BD;" d="M236.004,354.355l-22.674,19.83c-3.755,3.284-9.412,3.096-12.941-0.43l-55.885-55.839l29.528-9.207
		c2.076-0.647,4.337-0.224,6.038,1.13L236.004,354.355z"/>
	<path style="fill:#2195BD;" d="M236.004,354.355l22.674,19.83c3.755,3.284,9.412,3.096,12.941-0.43l55.885-55.839l-29.528-9.207
		c-2.076-0.647-4.337-0.224-6.038,1.13L236.004,354.355z"/>
</g>
<path d="M449.505,409.715h-38.191v-38.191c0-4.142-3.357-7.499-7.499-7.499s-7.499,3.358-7.499,7.499v38.191h-38.191
	c-4.142,0-7.499,3.358-7.499,7.499s3.357,7.499,7.499,7.499h38.191v38.192c0,4.142,3.357,7.499,7.499,7.499s7.499-3.358,7.499-7.499
	v-38.192h38.191c4.142,0,7.499-3.358,7.499-7.499S453.647,409.715,449.505,409.715z"/>
<path d="M403.814,319.259c-10.733,0-21.061,1.766-30.712,5.018l-43.363-13.52c-0.001,0-0.002-0.001-0.002-0.001l-29.528-9.206
	c-3.021-0.943-6.21-0.805-9.094,0.272c-2.368-2.292-3.789-5.494-3.789-8.866v-14.698c27.106-14.121,47.713-39.057,56.064-69.051
	h4.108c13.295,0,24.111-10.817,24.111-24.112v-18.409c0-3.521-0.765-6.865-2.128-9.884v-41.014c0-16.983-3.594-33.349-10.684-48.643
	c-1.741-3.757-6.2-5.392-9.958-3.651c-3.758,1.742-5.392,6.2-3.65,9.958c6.167,13.304,9.293,27.548,9.293,42.336v27.822
	c-0.539-0.163-1.087-0.305-1.641-0.431c-0.033-0.008-0.066-0.016-0.099-0.023c-1.062-0.237-2.149-0.402-3.259-0.493
	c-0.126-0.011-0.253-0.021-0.38-0.029c-0.519-0.034-1.041-0.058-1.569-0.059c-0.013,0-0.026-0.001-0.039-0.001h-0.294
	c-0.067-0.999-0.152-1.995-0.245-2.991l-0.04-0.439c-0.015-0.156-0.037-0.313-0.053-0.469c-0.081-0.794-0.171-1.586-0.269-2.378
	c-0.031-0.247-0.061-0.492-0.093-0.739c-0.122-0.934-0.255-1.866-0.4-2.795c-0.009-0.057-0.016-0.115-0.025-0.172l-0.011-0.067
	c-0.185-1.164-0.391-2.324-0.612-3.48l-0.101-0.529c-0.018-0.091-0.039-0.18-0.057-0.271c-0.143-0.717-0.293-1.433-0.45-2.147
	c-0.014-0.066-0.027-0.133-0.042-0.199l-0.12-0.553c-0.018-0.079-0.039-0.156-0.057-0.235c-0.23-1.002-0.469-2.001-0.726-2.996
	c-0.193-0.743-0.506-1.426-0.894-2.053c-0.044-0.071-0.076-0.152-0.122-0.222c-0.076-0.115-0.172-0.212-0.255-0.322
	c-1.385-1.851-3.572-3.023-5.989-3.023c-0.031,0-0.063,0-0.096,0l-0.271,0.003c-1.313,0.017-2.599,0.378-3.729,1.048
	c-12.956,7.681-29.976,11.575-50.587,11.575c-2.603,0-5.205-0.102-7.804-0.292c-5.021-0.367-10.034-1.071-15.03-2.004
	c-0.176-0.033-0.353-0.061-0.53-0.094c-9.493-1.805-18.921-4.452-28.228-7.287c-3.367-1.026-6.72-2.074-10.052-3.118
	c-27.359-8.575-55.647-17.443-83.89-9.44c-2.305,0.653-4.159,2.368-4.99,4.616c-0.005,0.015-0.01,0.029-0.015,0.044
	c-0.397,1.076-0.785,2.187-1.181,3.381c-0.081,0.242-0.16,0.485-0.239,0.727c-0.022,0.069-0.044,0.133-0.067,0.203l-0.118,0.364
	c-0.25,0.783-0.493,1.581-0.73,2.388c-0.118,0.4-0.23,0.8-0.343,1.201c-0.067,0.237-0.137,0.47-0.202,0.709l-0.117,0.434
	c-0.047,0.174-0.083,0.345-0.13,0.519c-0.278,1.047-0.54,2.097-0.787,3.152c-0.06,0.256-0.134,0.514-0.192,0.77l-0.038,0.18
	c-0.042,0.188-0.079,0.373-0.12,0.561c-0.09,0.411-0.18,0.823-0.265,1.235c-0.192,0.921-0.374,1.834-0.536,2.725
	c-0.009,0.043-0.017,0.086-0.024,0.129c-0.012,0.066-0.022,0.137-0.034,0.204c-0.054,0.301-0.101,0.603-0.152,0.904
	c-0.124,0.736-0.244,1.501-0.361,2.289c-0.074,0.498-0.151,0.996-0.218,1.496l-0.027,0.19c-0.111,0.831-0.211,1.689-0.306,2.559
	c-0.054,0.494-0.104,0.988-0.152,1.484c-0.012,0.122-0.026,0.24-0.037,0.362l-0.061,0.679c-0.038,0.439-0.066,0.852-0.099,1.274
	c-0.023,0.304-0.057,0.606-0.077,0.91h-0.293c-0.014,0-0.027,0.002-0.041,0.002c-0.526,0.001-1.047,0.024-1.565,0.058
	c-0.128,0.009-0.256,0.019-0.384,0.029c-1.107,0.091-2.192,0.256-3.252,0.492c-0.037,0.008-0.074,0.017-0.111,0.026
	c-0.552,0.126-1.097,0.267-1.634,0.43v-27.823C117.525,60.213,162.738,15,218.313,15h35.377c27.915,0,53.878,11.153,73.106,31.406
	c2.852,3.005,7.599,3.126,10.603,0.275c3.004-2.852,3.127-7.599,0.275-10.602C315.587,12.812,285.761,0,253.693,0h-35.377
	c-63.845,0-115.787,51.942-115.787,115.787v41.017c-1.362,3.018-2.127,6.361-2.127,9.882v18.409
	c0,13.295,10.817,24.112,24.111,24.112h4.108c8.351,29.994,28.958,54.93,56.063,69.051v14.698c0,3.372-1.422,6.574-3.79,8.866
	c-2.884-1.077-6.074-1.214-9.094-0.273l-88.938,27.73c-14.309,4.222-27.176,11.414-38.24,21.376
	c-3.078,2.771-3.327,7.513-0.556,10.591c2.772,3.078,7.513,3.326,10.592,0.556c9.4-8.463,20.333-14.57,32.497-18.151
	c0.038-0.012,0.076-0.023,0.114-0.035l55.14-17.192l52.679,52.636c3.292,3.289,7.645,4.951,12.008,4.951
	c3.982,0,7.973-1.385,11.171-4.181l17.737-15.512l17.737,15.512c3.198,2.797,7.188,4.182,11.171,4.182
	c4.362,0,8.716-1.662,12.007-4.951l52.679-52.636l23.421,7.303c-5.541,3.451-10.673,7.445-15.352,11.884
	c-0.24,0.227-0.478,0.455-0.715,0.684c-0.335,0.324-0.671,0.648-1.001,0.977c-16.16,16.044-26.677,37.76-28.286,61.876
	c-0.011,0.16-0.021,0.32-0.031,0.48c-0.049,0.797-0.088,1.597-0.118,2.399c-0.009,0.231-0.019,0.461-0.026,0.692
	c-0.029,0.967-0.048,1.937-0.048,2.911c0,0.828,0.011,1.654,0.031,2.478c0.001,0.04,0.003,0.08,0.004,0.119
	c0.658,25.08,10.829,48.337,28.179,65.593H83.029v-68.19c0-4.142-3.357-7.499-7.499-7.499s-7.499,3.358-7.499,7.499v68.19H27.753
	c-0.519,0-0.94-0.422-0.94-0.941v-58.555c0-12.68,2.77-24.893,8.233-36.299c1.79-3.736,0.212-8.214-3.523-10.003
	c-3.736-1.788-8.214-0.212-10.004,3.524c-6.439,13.445-9.704,27.838-9.704,42.778v58.555c0,8.789,7.15,15.94,15.939,15.94h327.462
	c14.276,8.371,30.885,13.18,48.598,13.18c53.139,0,96.371-43.232,96.371-96.371S456.952,319.259,403.814,319.259z M346.481,194.08
	c0.305-2.299,0.538-4.62,0.7-6.961c0.019-0.266,0.034-0.532,0.051-0.797c0.055-0.887,0.099-1.777,0.134-2.669
	c0.011-0.3,0.025-0.601,0.034-0.901c0.034-1.131,0.057-2.265,0.057-3.404v-21.775h0.04c0.008,0,0.016,0.001,0.025,0.001
	c0.366,0.001,0.728,0.029,1.086,0.073c0.095,0.012,0.188,0.029,0.281,0.043c0.295,0.046,0.586,0.104,0.872,0.179
	c0.071,0.018,0.143,0.035,0.213,0.055c0.727,0.207,1.425,0.503,2.076,0.88c0.037,0.022,0.073,0.045,0.11,0.067
	c0.298,0.178,0.585,0.373,0.861,0.584c0.031,0.023,0.062,0.045,0.092,0.069c0.599,0.47,1.14,1.018,1.61,1.632
	c0.031,0.04,0.061,0.081,0.091,0.122c0.226,0.306,0.438,0.624,0.627,0.96c0.003,0.005,0.007,0.01,0.01,0.016
	c0.734,1.313,1.157,2.823,1.157,4.431v18.409c0,5.025-4.088,9.113-9.113,9.113h-1.03
	C346.471,194.165,346.475,194.123,346.481,194.08z M124.513,194.208c-5.025,0-9.113-4.088-9.113-9.113v-18.409
	c0-1.617,0.428-3.134,1.17-4.452c0.186-0.331,0.395-0.644,0.618-0.945c0.035-0.047,0.069-0.093,0.104-0.139
	c0.467-0.609,1.004-1.153,1.598-1.62c0.035-0.028,0.072-0.053,0.107-0.08c0.27-0.206,0.552-0.397,0.843-0.572
	c0.041-0.025,0.082-0.051,0.124-0.076c0.648-0.376,1.343-0.669,2.067-0.876c0.073-0.021,0.147-0.038,0.22-0.057
	c0.284-0.073,0.573-0.131,0.865-0.177c0.095-0.015,0.19-0.032,0.286-0.044c0.357-0.044,0.717-0.072,1.082-0.073
	c0.01,0,0.019-0.001,0.029-0.001l0.04,21.775c0,1.14,0.023,2.275,0.057,3.407c0.009,0.298,0.023,0.596,0.034,0.894
	c0.034,0.894,0.078,1.785,0.134,2.674c0.017,0.266,0.032,0.531,0.051,0.797c0.162,2.341,0.395,4.662,0.7,6.961
	c0.006,0.042,0.009,0.085,0.015,0.127L124.513,194.208L124.513,194.208z M141.635,199.312c-0.078-0.368-0.154-0.737-0.227-1.106
	c-0.081-0.409-0.16-0.818-0.236-1.229c-0.085-0.461-0.167-0.923-0.245-1.385c-0.057-0.337-0.114-0.675-0.168-1.014
	c-0.086-0.542-0.166-1.086-0.243-1.63c-0.039-0.276-0.079-0.552-0.116-0.829c-0.08-0.603-0.152-1.207-0.221-1.811
	c-0.026-0.233-0.055-0.466-0.08-0.7c-0.068-0.642-0.127-1.286-0.182-1.929c-0.018-0.205-0.038-0.41-0.055-0.616
	c-0.053-0.663-0.095-1.327-0.135-1.991c-0.011-0.193-0.026-0.385-0.037-0.579c-0.036-0.677-0.06-1.355-0.082-2.033
	c-0.006-0.182-0.016-0.363-0.021-0.546c-0.023-0.856-0.035-1.712-0.035-2.568v-29.155c0.001-0.041,0.001-0.082,0.001-0.115
	c0,0,0,0,0-0.001c0.001-1.065,0.028-2.126,0.063-3.186c0.01-0.286,0.015-0.558,0.028-0.852l0.004-0.087
	c0.04-0.947,0.099-1.891,0.166-2.833c0.029-0.394,0.058-0.791,0.093-1.203c0.079-0.935,0.168-1.869,0.274-2.8
	c0.04-0.355,0.085-0.696,0.128-1.043c0.097-0.782,0.205-1.561,0.322-2.34c0.052-0.351,0.103-0.711,0.156-1.046
	c0.157-0.978,0.332-1.952,0.519-2.923c0.047-0.242,0.09-0.479,0.139-0.724c0.201-1.001,0.421-1.998,0.654-2.993
	c0.066-0.279,0.132-0.558,0.201-0.84c0.23-0.941,0.473-1.88,0.732-2.814c0.275-0.999,0.576-1.988,0.88-2.967
	c0.084-0.271,0.159-0.544,0.246-0.814l0.055-0.169c0.007-0.021,0.014-0.042,0.021-0.062c1.424-0.315,2.853-0.581,4.284-0.801
	c16.088-2.474,32.655,0.832,49.825,5.74c5.759,1.646,11.585,3.47,17.485,5.319c21.146,6.628,43.011,13.481,66.13,13.481
	c1.226,0,2.441-0.014,3.646-0.039c17.5-0.368,32.804-3.407,45.671-9.062c0.021,0.133,0.037,0.269,0.057,0.403
	c0.147,0.963,0.28,1.928,0.398,2.896c0.046,0.379,0.087,0.757,0.128,1.136c0.088,0.801,0.167,1.603,0.236,2.407
	c0.034,0.403,0.067,0.808,0.097,1.221c0.059,0.814,0.105,1.63,0.144,2.446c0.014,0.296,0.032,0.597,0.043,0.889l0.009,0.229
	c0.041,1.139,0.068,2.279,0.068,3.421c0,0.005,0,0.01,0,0.014c0,0.024,0,0.053,0.001,0.081c0,0.011,0,0.02,0,0.031v29.155
	c0,0.856-0.012,1.712-0.035,2.568c-0.005,0.182-0.015,0.363-0.021,0.546c-0.022,0.678-0.046,1.356-0.082,2.033
	c-0.01,0.193-0.026,0.386-0.037,0.579c-0.039,0.664-0.082,1.328-0.134,1.991c-0.016,0.206-0.037,0.41-0.055,0.616
	c-0.056,0.644-0.114,1.287-0.183,1.929c-0.025,0.234-0.054,0.466-0.08,0.7c-0.069,0.604-0.141,1.208-0.221,1.811
	c-0.037,0.277-0.077,0.553-0.116,0.829c-0.077,0.544-0.157,1.087-0.243,1.63c-0.054,0.339-0.111,0.676-0.168,1.014
	c-0.079,0.462-0.16,0.924-0.245,1.385c-0.076,0.41-0.155,0.82-0.236,1.229c-0.073,0.369-0.149,0.738-0.227,1.106
	c-8.721,41.272-43.909,72.896-86.906,76.202c-0.13,0.01-0.26,0.017-0.389,0.026c-0.678,0.049-1.358,0.094-2.04,0.13
	c-0.337,0.017-0.676,0.027-1.014,0.041c-0.491,0.02-0.981,0.043-1.474,0.056c-0.847,0.022-1.696,0.034-2.547,0.034
	s-1.7-0.012-2.547-0.034c-0.493-0.013-0.983-0.036-1.474-0.056c-0.338-0.014-0.676-0.023-1.014-0.041
	c-0.682-0.035-1.362-0.08-2.04-0.13c-0.13-0.009-0.26-0.016-0.389-0.026C185.544,272.208,150.356,240.584,141.635,199.312z
	 M208.394,368.539c-0.783,0.685-1.97,0.645-2.705-0.089l-47.106-47.068l17.206-5.365l48.513,38.61L208.394,368.539z M193.18,310.687
	c4.14-4.84,6.503-11.066,6.503-17.731v-8.211c1.929,0.667,3.877,1.258,5.835,1.815c0.017,0.005,0.034,0.009,0.051,0.014
	c1.634,0.464,3.279,0.888,4.932,1.276c0.231,0.054,0.462,0.108,0.694,0.161c1.437,0.327,2.882,0.625,4.332,0.894
	c0.302,0.056,0.603,0.117,0.906,0.171c0.742,0.131,1.486,0.254,2.231,0.371c0.669,0.105,1.341,0.2,2.013,0.293
	c0.851,0.117,1.704,0.226,2.56,0.323c0.843,0.097,1.689,0.184,2.538,0.262c0.456,0.041,0.912,0.086,1.369,0.122
	c1.243,0.098,2.493,0.173,3.747,0.23c0.335,0.015,0.671,0.026,1.007,0.038c1.363,0.05,2.73,0.084,4.106,0.084
	s2.742-0.034,4.106-0.084c0.336-0.012,0.672-0.023,1.007-0.038c1.254-0.057,2.504-0.132,3.747-0.23
	c0.457-0.036,0.913-0.081,1.369-0.122c0.849-0.078,1.695-0.165,2.538-0.262c0.856-0.097,1.709-0.206,2.56-0.323
	c0.673-0.093,1.345-0.188,2.013-0.293c0.745-0.116,1.489-0.239,2.231-0.371c0.303-0.054,0.604-0.114,0.906-0.171
	c1.451-0.269,2.895-0.567,4.332-0.894c0.232-0.053,0.463-0.107,0.694-0.161c1.653-0.388,3.298-0.812,4.932-1.276
	c0.017-0.005,0.034-0.009,0.051-0.014c1.957-0.557,3.906-1.149,5.835-1.815v8.211c0,6.665,2.363,12.891,6.502,17.731l-42.824,34.083
	L193.18,310.687z M266.318,368.45c-0.734,0.732-1.921,0.773-2.702,0.089l-15.909-13.914l29.992-23.87l17.814-14.177
	c0,0,0,0,0.001-0.001l0.705-0.561l17.207,5.365L266.318,368.45z M403.814,497.001c-43.36,0-78.9-34.092-81.242-76.877
	c-0.013-0.237-0.023-0.475-0.034-0.712c-0.058-1.254-0.096-2.514-0.096-3.782c0-1.247,0.039-2.484,0.094-3.717
	c0.021-0.455,0.052-0.909,0.081-1.363c0.046-0.75,0.104-1.497,0.171-2.241c0.053-0.578,0.105-1.156,0.17-1.731
	c0.059-0.53,0.132-1.055,0.201-1.581c2.097-15.78,8.79-30.431,18.902-42.268c0.366-0.427,0.731-0.857,1.106-1.276
	c0.328-0.368,0.664-0.731,0.998-1.093c0.574-0.619,1.155-1.232,1.748-1.833c0.198-0.201,0.394-0.404,0.594-0.604
	c14.718-14.617,34.974-23.665,57.307-23.665c44.869,0,81.372,36.503,81.372,81.372S448.683,497.001,403.814,497.001z"/>
<g>
</g>
<g>
</g>
<g>
</g>
<g>
</g>
<g>
</g>
<g>
</g>
<g>
</g>
<g>
</g>
<g>
</g>
<g>
</g>
<g>
</g>
<g>
</g>
<g>
</g>
<g>
</g>
<g>
</g>
</svg>
