<svg clip-rule="evenodd" fill-rule="evenodd" height="14pt" stroke-linejoin="round" stroke-miterlimit="2" viewBox="0 0 24 24" width="14pt" xmlns="http://www.w3.org/2000/svg">
    <g id="Icon">
        <circle cx="11.5" cy="6.744" r="5.5" fill="#969696"/>
        <path d="m11.25 21.756v-2.055c0-.465.184-.91.513-1.238l1.99-1.99c-.049-1.084.255-2.182.908-3.106-.993-.169-2.056-.261-3.161-.261-3.322 0-6.263.831-8.089 2.076-1.393.95-2.161 2.157-2.161 3.424v1.45c0 .451.179.884.498 1.202.319.319.751.498 1.202.498z" fill="#969696"/>
        <path d="m18.152 20.208c1.212.182 2.493-.194 3.426-1.127 1.562-1.562 1.562-4.098 0-5.659-1.561-1.562-4.097-1.562-5.659 0-.933.933-1.309 2.214-1.127 3.427 0-.001-2.322 2.321-2.322 2.321-.141.141-.22.332-.22.531v2.299c0 .414.336.75.75.75h2.299c.199 0 .39-.079.531-.22zm-.17-3.19c-.423-.423-.423-1.11 0-1.533s1.11-.423 1.533 0 .423 1.11 0 1.533-1.11.423-1.533 0z" fill="#969696"/>
    </g>
</svg>