<svg height="60pt" viewBox="0 0 256 256" width="60pt" xmlns="http://www.w3.org/2000/svg"><g fill="none" stroke-miterlimit="10" stroke-width="0" transform="matrix(2.81 0 0 2.81 1.407 1.407)"><path d="m9.476 24.843c-.034-.513-.058-1.029-.058-1.55 0-12.714 10.307-23.021 23.021-23.021 9.198 0 17.133 5.396 20.82 13.193 2.777-1.972 6.162-3.142 9.827-3.142 8.48 0 15.49 6.212 16.778 14.329 5.839 1.597 10.136 6.926 10.136 13.272 0 7.607-6.167 13.774-13.774 13.774h-62.452c-7.607-.001-13.774-6.167-13.774-13.774 0-6.105 3.976-11.274 9.476-13.081z" fill="#62c3f7"/><g fill="#7bd8f7"><path d="m10.733 71.319c-.11 0-.223-.018-.334-.056-.534-.184-.817-.766-.633-1.3l3.291-9.546c.183-.533.763-.819 1.3-.633.534.184.817.766.633 1.3l-3.291 9.546c-.145.424-.542.689-.966.689z"/><path d="m4.385 89.728c-.11 0-.223-.018-.334-.056-.534-.184-.817-.766-.633-1.3l3.291-9.546c.183-.534.763-.819 1.3-.633.534.184.817.766.633 1.3l-3.291 9.546c-.145.424-.541.689-.966.689z"/><path d="m17.433 81.547c-.11 0-.223-.018-.334-.056-.534-.184-.817-.766-.633-1.3l3.291-9.546c.183-.534.761-.82 1.3-.633.534.184.817.766.633 1.3l-3.29 9.545c-.146.424-.542.69-.967.69z"/><path d="m31.187 71.319c-.11 0-.223-.018-.334-.056-.534-.184-.817-.766-.633-1.3l3.291-9.546c.183-.533.763-.819 1.3-.633.534.184.817.766.633 1.3l-3.291 9.546c-.145.424-.541.689-.966.689z"/><path d="m24.84 89.728c-.11 0-.223-.018-.334-.056-.534-.184-.817-.766-.633-1.3l3.291-9.546c.183-.534.763-.819 1.3-.633.534.184.817.766.633 1.3l-3.291 9.546c-.145.424-.542.689-.966.689z"/><path d="m37.888 81.547c-.11 0-.223-.018-.334-.056-.534-.184-.817-.766-.633-1.3l3.291-9.546c.183-.534.761-.82 1.3-.633.534.184.817.766.633 1.3l-3.291 9.546c-.145.423-.542.689-.966.689z"/><path d="m51.642 71.319c-.111 0-.223-.018-.334-.056-.533-.184-.817-.766-.633-1.3l3.291-9.546c.184-.534.764-.816 1.3-.633.533.184.817.766.633 1.3l-3.291 9.546c-.145.424-.542.689-.966.689z"/><path d="m45.294 89.728c-.11 0-.223-.018-.334-.056-.534-.184-.817-.766-.633-1.3l3.291-9.546c.184-.534.765-.816 1.3-.633.533.184.817.766.633 1.3l-3.291 9.546c-.145.424-.541.689-.966.689z"/><path d="m58.342 81.547c-.111 0-.223-.018-.334-.056-.533-.184-.817-.766-.633-1.3l3.292-9.546c.184-.533.764-.816 1.3-.633.533.184.817.766.633 1.3l-3.292 9.546c-.145.423-.541.689-.966.689z"/><path d="m72.096 71.319c-.111 0-.223-.018-.334-.056-.533-.184-.817-.766-.633-1.3l3.291-9.546c.184-.534.766-.816 1.3-.633.533.184.817.766.633 1.3l-3.291 9.546c-.145.424-.541.689-.966.689z"/><path d="m65.749 89.728c-.111 0-.223-.018-.334-.056-.533-.184-.817-.766-.633-1.3l3.291-9.546c.184-.534.766-.816 1.3-.633.533.184.817.766.633 1.3l-3.291 9.546c-.145.424-.541.689-.966.689z"/></g></g></svg>