<svg clip-rule="evenodd" fill-rule="evenodd" height="16pt" stroke-linejoin="round" stroke-miterlimit="2" viewBox="0 0 64 64" width="16pt" xmlns="http://www.w3.org/2000/svg">
    <path d="m17.677 15.844-.662.661c-1.245 1.246-1.945 2.935-1.945 4.696s.7 3.45 1.945 4.695c2.046 2.046 4.532 4.532 6.578 6.579 1.246 1.245 2.935 1.944 4.696 1.944s3.45-.699 4.695-1.944l.669-.67c.497-.496.776-1.169.776-1.871s-.279-1.375-.776-1.872l-1.746-1.746c-.497-.497-1.17-.776-1.872-.776s-1.375.279-1.871.776l-.75.749c-.077.077-.181.12-.29.12-.108 0-.213-.043-.29-.12l-4.41-4.41c-.077-.077-.12-.181-.12-.29s.043-.213.12-.29c.392-.391.75-.749.75-.749.496-.497.775-1.17.775-1.872s-.279-1.375-.775-1.871l-1.747-1.747c-.496-.496-1.169-.775-1.871-.775s-1.375.279-1.872.775z" fill="#ffffff"/>
    <path d="m8.685 8.675c-8.867 8.867-8.867 23.264 0 32.13 8.866 8.866 23.263 8.866 32.129 0s8.866-23.263 0-32.13c-8.866-8.866-23.263-8.866-32.129 0zm5.098 5.099c6.053-6.052 15.88-6.052 21.932 0 6.053 6.052 6.053 15.88 0 21.932-6.052 6.053-15.879 6.053-21.932 0-6.052-6.052-6.052-15.88 0-21.932z" fill="#ffffff"/>
    <path d="m39.354 40.85 3.468 3.467c.39.39 1.024.39 1.414 0s.39-1.024 0-1.414l-3.467-3.467c-.391-.39-1.024-.39-1.415 0-.39.39-.39 1.024 0 1.414z" fill="#ffffff"/>
    <path d="m49.085 42.902c-.831-.831-1.957-1.297-3.131-1.297-1.175 0-2.301.466-3.131 1.297-.001.001-.002.001-.002.002-.831.83-1.297 1.957-1.297 3.131s.466 2.301 1.297 3.131l10.587 10.587c.83.831 1.957 1.297 3.131 1.297s2.301-.466 3.131-1.297c.001 0 .001-.001.002-.002.83-.83 1.297-1.956 1.297-3.131 0-1.174-.467-2.3-1.297-3.131z" fill="#ffffff"/>
</svg>