<svg fill="none" height="16pt" viewBox="0 0 50 50" width="16pt" xmlns="http://www.w3.org/2000/svg">
    <path d="m41.6666 36.6042c1.0322-1.6914 1.4745-3.6772 1.2578-5.6467-.2168-1.9695-1.0804-3.8116-2.4557-5.238s-3.1847-2.3565-5.145-2.6449-3.9609.0812-5.6887 1.0511c-1.7279.9698-3.0854 2.4851-3.8602 4.3088-.7748 1.8236-.9232 3.8527-.4218 5.7696.5013 1.9169 1.624 3.6136 3.1924 4.8244 1.5684 1.2109 3.494 1.8675 5.4754 1.8673 1.6456-.0077 3.2583-.4613 4.6667-1.3125l3.5833 3.6042c.1937.1953.4241.3503.678.456.2538.1058.5261.1602.8012.1602.275 0 .5473-.0544.8012-.1602.2538-.1057.4843-.2607.6779-.456.1953-.1937.3503-.4241.4561-.678.1057-.2538.1602-.5261.1602-.8012 0-.275-.0545-.5473-.1602-.8012-.1058-.2538-.2608-.4843-.4561-.6779zm-4.1666-1.1875c-.9182.875-2.1379 1.3631-3.4063 1.3631-1.2683 0-2.488-.4881-3.4062-1.3631-.8995-.9055-1.4043-2.13-1.4043-3.4063s.5048-2.5008 1.4043-3.4062c.447-.4479.9779-.8032 1.5624-1.0457.5845-.2424 1.211-.3672 1.8438-.3672s1.2593.1248 1.8438.3672c.5845.2425 1.1155.5978 1.5625 1.0457.8994.9054 1.4042 2.1299 1.4042 3.4062s-.5048 2.5008-1.4042 3.4063zm2.0833-29.1667h-29.1667c-1.65758 0-3.24729.65848-4.41939 1.83058-1.1721 1.17211-1.83058 2.76182-1.83058 4.41942v18.75c0 1.6576.65848 3.2473 1.83058 4.4194s2.76181 1.8306 4.41939 1.8306h8.3334c.5525 0 1.0824-.2195 1.4731-.6102s.6102-.9206.6102-1.4731c0-.5526-.2195-1.0825-.6102-1.4732s-.9206-.6102-1.4731-.6102h-8.3334c-.55251 0-1.08241-.2195-1.47311-.6102s-.6102-.9206-.6102-1.4731v-12.5h33.33331v2.0833c0 .5526.2195 1.0825.6102 1.4732s.9206.6102 1.4732.6102c.5525 0 1.0824-.2195 1.4731-.6102s.6102-.9206.6102-1.4732v-8.3333c0-1.6576-.6585-3.24731-1.8306-4.41942-1.1721-1.1721-2.7618-1.83058-4.4194-1.83058zm2.0833 8.3333h-33.33331v-2.0833c0-.5525.2195-1.0824.6102-1.4731s.9206-.6102 1.47311-.6102h29.1667c.5525 0 1.0824.2195 1.4731.6102s.6102.9206.6102 1.4731zm-20.8333 8.3334h-6.25c-.5525 0-1.0824.2195-1.4731.6102s-.6102.9206-.6102 1.4731.2195 1.0824.6102 1.4731.9206.6102 1.4731.6102h6.25c.5525 0 1.0824-.2195 1.4731-.6102s.6102-.9206.6102-1.4731-.2195-1.0824-.6102-1.4731-.9206-.6102-1.4731-.6102z" fill="#ffffff"/>
</svg>