<?xml version="1.0" encoding="utf-8"?>
<svg clip-rule="evenodd" fill-rule="evenodd" height="16pt" stroke-linejoin="round" stroke-miterlimit="2" viewBox="0 0 267 267" width="16pt" xmlns="http://www.w3.org/2000/svg">
    <defs/>
    <path d="M 188.723 33.491 C 224.237 63.268 228.895 116.276 199.118 151.791 C 169.341 187.305 116.332 191.963 80.818 162.186 C 45.304 132.409 40.646 79.401 70.423 43.886 C 100.2 8.372 153.208 3.714 188.723 33.491 L 188.723 33.491 Z M 134.77 37.204 C 101.305 37.204 74.135 64.373 74.135 97.839 C 74.135 131.304 101.305 158.474 134.77 158.474 C 168.236 158.474 195.405 131.304 195.405 97.839 C 195.405 64.373 168.236 37.204 134.77 37.204 L 134.77 37.204 Z" fill="#ffffff"/>
    <path d="M 135.265 46.624 C 150.777 46.624 163.371 59.218 163.371 74.73 C 163.371 83.835 158.955 94.516 152.129 101.598 C 147.411 106.493 141.558 109.662 135.265 109.662 C 128.972 109.662 123.118 106.493 118.4 101.598 C 111.575 94.516 107.159 83.835 107.159 74.73 C 107.159 59.218 119.753 46.624 135.265 46.624 Z" fill="#ffffff"/>
    <path d="M 118.948 195.902 C 118.948 197.752 118.213 199.527 116.905 200.836 C 115.596 202.144 113.821 202.88 111.971 202.88 L 46.663 202.88 C 43.02 202.88 40.062 199.922 40.062 196.279 L 40.062 192.704 C 40.062 189.061 43.02 186.104 46.663 186.104 L 111.971 186.104 C 113.821 186.104 115.596 186.839 116.905 188.147 C 118.213 189.456 118.948 191.231 118.948 193.081 L 118.948 195.902 Z M 127.683 193.081 C 127.683 191.231 128.419 189.456 129.727 188.147 C 131.036 186.839 132.811 186.104 134.661 186.104 L 152.337 186.104 C 155.98 186.104 158.938 189.061 158.938 192.704 L 158.938 196.279 C 158.938 199.922 155.98 202.88 152.337 202.88 L 134.661 202.88 C 132.811 202.88 131.036 202.144 129.727 200.836 C 128.419 199.527 127.683 197.752 127.683 195.902 L 127.683 193.081 Z M 127.683 216.275 C 127.683 214.425 128.419 212.65 129.727 211.341 C 131.036 210.033 132.811 209.297 134.661 209.297 L 152.337 209.297 C 155.98 209.297 158.938 212.255 158.938 215.898 L 158.938 219.473 C 158.938 223.116 155.98 226.073 152.337 226.073 L 134.661 226.073 C 132.811 226.073 131.036 225.338 129.727 224.03 C 128.419 222.721 127.683 220.946 127.683 219.096 L 127.683 216.275 Z M 127.683 239.469 C 127.683 237.618 128.419 235.844 129.727 234.535 C 131.036 233.226 132.811 232.491 134.661 232.491 L 152.337 232.491 C 155.98 232.491 158.938 235.449 158.938 239.092 L 158.938 242.667 C 158.938 246.31 155.98 249.267 152.337 249.267 L 134.661 249.267 C 132.811 249.267 131.036 248.532 129.727 247.224 C 128.419 245.915 127.683 244.14 127.683 242.289 L 127.683 239.469 Z M 118.948 242.289 C 118.948 244.14 118.213 245.915 116.905 247.224 C 115.596 248.532 113.821 249.267 111.971 249.267 L 46.663 249.267 C 43.02 249.267 40.062 246.31 40.062 242.667 L 40.062 239.092 C 40.062 235.449 43.02 232.491 46.663 232.491 L 111.971 232.491 C 113.821 232.491 115.596 233.226 116.905 234.535 C 118.213 235.844 118.948 237.618 118.948 239.469 L 118.948 242.289 Z M 118.948 219.096 C 118.948 220.946 118.213 222.721 116.905 224.03 C 115.596 225.338 113.821 226.073 111.971 226.073 L 46.663 226.073 C 43.02 226.073 40.062 223.116 40.062 219.473 L 40.062 215.898 C 40.062 212.255 43.02 209.297 46.663 209.297 L 111.971 209.297 C 113.821 209.297 115.596 210.033 116.905 211.341 C 118.213 212.65 118.948 214.425 118.948 216.275 L 118.948 219.096 Z" fill="#ffffff"/>
    <path d="M 84.455 124.888 C 87.591 117.675 92.475 111.391 98.629 108.842 C 103.397 106.868 107.897 104.103 111.561 101.261 C 112.743 102.916 114.027 104.473 115.4 105.898 C 120.94 111.646 127.875 115.237 135.265 115.237 C 142.654 115.237 149.589 111.646 155.129 105.898 C 156.367 104.613 157.533 103.221 158.616 101.747 C 162.159 104.416 166.416 106.981 170.912 108.842 C 177.066 111.391 181.95 117.675 185.086 124.888 C 175.738 143.18 156.706 155.715 134.77 155.715 C 112.834 155.715 93.803 143.18 84.455 124.888 Z M 156.293 123.388 C 151.123 124.66 149.652 124.586 143.24 124.479 C 142.09 124.46 141.141 125.377 141.122 126.527 C 141.103 127.677 142.021 128.626 143.17 128.645 C 150.107 128.76 151.696 128.81 157.288 127.434 C 158.404 127.16 159.088 126.03 158.813 124.914 C 158.539 123.797 157.409 123.114 156.293 123.388 Z" fill="#ffffff"/>
    <path d="M 213.402 232.943 C 217.297 236.311 223.122 241.401 227.586 245.309 C 228.007 245.678 228.559 245.862 229.118 245.819 C 229.676 245.776 230.194 245.51 230.554 245.081 C 233.516 241.55 236.825 238.228 240.478 235.166 C 244.129 232.104 247.975 229.426 251.966 227.126 C 252.452 226.846 252.805 226.382 252.944 225.839 C 253.084 225.296 252.998 224.72 252.708 224.241 L 242.554 207.498 C 241.482 205.729 241.196 203.592 241.754 201.636 C 243.307 196.701 242.348 191.12 238.78 186.864 L 214.78 158.241 C 209.139 151.513 199.098 150.63 192.37 156.271 L 171.183 174.035 C 164.455 179.676 163.573 189.718 169.214 196.446 L 193.213 225.069 C 196.77 229.311 202.076 231.23 207.198 230.654 C 207.355 230.637 207.512 230.626 207.669 230.62 C 209.544 230.253 211.355 229.425 212.922 228.112 C 212.922 228.112 215.652 225.793 218.51 223.634 C 221.385 221.463 224.363 219.472 224.363 219.472 C 224.952 218.978 225.83 219.055 226.324 219.644 C 226.817 220.233 226.74 221.111 226.151 221.605 C 226.151 221.605 223.671 224.19 221.032 226.642 C 218.408 229.079 215.648 231.364 215.648 231.364 C 214.934 231.963 214.182 232.489 213.402 232.943 Z" style="transform-origin: 209.254px 199.192px;" transform="matrix(-1, 0, 0, -1, -0.000003, 0.000012)" fill="#ffffff"/>
</svg>