<svg id="bold" enable-background="new 0 0 24 24" height="16pt" viewBox="0 0 24 24" width="16pt" xmlns="http://www.w3.org/2000/svg">
    <path d="m9.25 15h-4.5c-.414 0-.75-.336-.75-.75s.336-.75.75-.75h4.5c.414 0 .75.336.75.75s-.336.75-.75.75z" fill="#ffffff"/>
    <path d="m8.77 18h-4.02c-.414 0-.75-.336-.75-.75s.336-.75.75-.75h4.02c.414 0 .75.336.75.75s-.336.75-.75.75z" fill="#ffffff"/>
    <circle cx="8.5" cy="5" r="2" fill="#ffffff"/>
    <path d="m11.75 12h-6.5c-.414 0-.75-.336-.75-.75v-.5c0-1.517 1.233-2.75 2.75-2.75h2.5c1.517 0 2.75 1.233 2.75 2.75v.5c0 .414-.336.75-.75.75z" fill="#ffffff"/>
    <path d="m10.28 21h-7.53c-1.517 0-2.75-1.233-2.75-2.75v-15.5c0-1.517 1.233-2.75 2.75-2.75h11.5c1.517 0 2.75 1.233 2.75 2.75v6.52c0 .414-.336.75-.75.75s-.75-.336-.75-.75v-6.52c0-.689-.561-1.25-1.25-1.25h-11.5c-.689 0-1.25.561-1.25 1.25v15.5c0 .689.561 1.25 1.25 1.25h7.53c.414 0 .75.336.75.75s-.336.75-.75.75z" fill="#ffffff"/>
    <path d="m23.78 22.72-2.767-2.767c.613-.83.987-1.845.987-2.953 0-2.757-2.243-5-5-5s-5 2.243-5 5 2.243 5 5 5c1.108 0 2.123-.374 2.953-.987l2.767 2.767c.293.293.768.293 1.061 0s.292-.767-.001-1.06zm-10.28-5.72c0-1.93 1.57-3.5 3.5-3.5s3.5 1.57 3.5 3.5-1.57 3.5-3.5 3.5-3.5-1.57-3.5-3.5z" fill="#ffffff"/>
</svg>