<?xml version="1.0" encoding="utf-8"?>
<svg clip-rule="evenodd" width="10pt" height="10pt" fill-rule="evenodd" image-rendering="optimizeQuality" shape-rendering="geometricPrecision" text-rendering="geometricPrecision" viewBox="0 0 254000 254000" xmlns="http://www.w3.org/2000/svg">
    <defs/>
    <g id="图层_x0020_1" style="" transform="matrix(1, 0, 0, -1, 0, 254000.015625)">
        <path d="m216747 254000h-179494c-20518 0-37253-16735-37253-37253v-179494c0-20518 16735-37253 37253-37253h179494c20518 0 37253 16735 37253 37253v179494c0 20518-16735 37253-37253 37253z" fill="none"/>
        <g id="_228535416" fill="#ff4141">
            <path id="_228535776" d="m114116 186727v-126586c0-3730 3081-6773 6773-6773h12222c3692 0 6773 3081 6773 6773v126586c0 3692-3043 6773-6773 6773h-12222c-3730 0-6773-3043-6773-6773z" style="fill: rgb(255, 2, 2);"/>
            <g>
                <path id="_228535920" d="m84945 125933 54525 54525c2637 2638 2606 6973 0 9579l-8642 8642c-2606 2605-6973 2605-9579 0l-54525-54525c-2606-2606-2637-6941 0-9579l8642-8642c2638-2637 6941-2637 9579 0z" style="fill: rgb(255, 2, 2);"/>
                <path id="_228536016" d="m169056 125933-54525 54525c-2637 2638-2606 6973 0 9579l8642 8642c2606 2605 6973 2605 9579 0l54525-54525c2606-2606 2637-6941 0-9579l-8642-8642c-2638-2637-6941-2637-9579 0z" style="fill: rgb(255, 2, 2);"/>
            </g>
        </g>
    </g>
</svg>