<?xml version="1.0" encoding="iso-8859-1"?>
<!-- Generator: Adobe Illustrator 19.0.0, SVG Export Plug-In . SVG Version: 6.00 Build 0)  -->
<svg version="1.1" id="Capa_1" xmlns="http://www.w3.org/2000/svg" xmlns:xlink="http://www.w3.org/1999/xlink" x="0px" y="0px" width="60px" height="60px"
	 viewBox="0 0 468.293 468.293" style="enable-background:new 0 0 468.293 468.293;" xml:space="preserve">
<circle style="fill:#F6C358;" cx="234.146" cy="99.659" r="99.659"/>
<circle style="fill:#FCD462;" cx="234.146" cy="99.659" r="79.216"/>
<path style="fill:#F6C358;" d="M230.965,159.664v-10.568c-13.23-1.349-25.106-6.609-35.615-15.775l10.568-12.594
	c8.106,7.045,16.447,11.239,25.047,12.594v-28.086c-10.909-2.604-18.897-6.032-23.963-10.279
	c-5.066-4.247-7.599-10.544-7.599-18.891s2.91-15.174,8.753-20.488c5.843-5.307,13.442-8.2,22.809-8.683v-7.24h9.26v7.381
	c10.615,0.778,20.652,4.394,30.113,10.862l-9.413,13.319c-6.374-4.536-13.266-7.334-20.7-8.4v27.215h0.436
	c11.098,2.61,19.251,6.132,24.458,10.568c5.219,4.442,7.823,10.886,7.823,19.327c0,8.447-2.992,15.327-8.977,20.629
	c-5.985,5.313-13.89,8.206-23.739,8.689v10.421H230.965z M220.751,66.221c-2.462,2.168-3.688,4.872-3.688,8.105
	c0,3.234,0.966,5.79,2.898,7.67c1.92,1.885,5.596,3.693,11.004,5.431V62.38C226.618,62.769,223.213,64.047,220.751,66.221z
	 M251.229,129.698c2.698-2.215,4.053-5.013,4.053-8.394c0-3.375-1.06-6.056-3.181-8.035c-2.132-1.979-6.091-3.835-11.875-5.573
	v26.054C244.855,133.274,248.519,131.919,251.229,129.698z"/>
<path style="fill:#44C4A1;" d="M442.221,468.293H26.071c-13.794,0-24.976-11.182-24.976-24.976V195.256
	c0-13.794,11.182-24.976,24.976-24.976h416.15c13.794,0,24.976,11.182,24.976,24.976v248.061
	C467.197,457.111,456.015,468.293,442.221,468.293z"/>
<rect x="1.093" y="205.175" style="fill:#3A556A;" width="466.107" height="63.413"/>
<g>
	<rect x="209.733" y="373.573" style="fill:#E1E6E9;" width="108.144" height="18.644"/>
	<rect x="387.871" y="373.573" style="fill:#E1E6E9;" width="32.718" height="18.644"/>
	<rect x="336.546" y="373.573" style="fill:#E1E6E9;" width="32.718" height="18.644"/>
</g>
<path style="fill:#FCD462;" d="M164.197,422.443H60.163c-6.897,0-12.488-5.591-12.488-12.488V355.79
	c0-6.897,5.591-12.488,12.488-12.488h104.034c6.897,0,12.488,5.591,12.488,12.488v54.165
	C176.685,416.852,171.094,422.443,164.197,422.443z"/>
<g>
</g>
<g>
</g>
<g>
</g>
<g>
</g>
<g>
</g>
<g>
</g>
<g>
</g>
<g>
</g>
<g>
</g>
<g>
</g>
<g>
</g>
<g>
</g>
<g>
</g>
<g>
</g>
<g>
</g>
</svg>
