<svg id="Layer_1" width="60px" height="60px" viewBox="0 0 512 512" xmlns="http://www.w3.org/2000/svg" data-name="Layer 1"><path d="m315.815 33.014c-58.24 0-105.622 47.382-105.622 105.622s47.382 105.622 105.622 105.622 105.65-47.382 105.65-105.622-47.395-105.622-105.65-105.622z" fill="#ffd54f"/><path d="m315.843 61.763c-42.403 0-76.901 34.485-76.901 76.872s34.498 76.872 76.901 76.872 76.872-34.485 76.872-76.872-34.485-76.872-76.872-76.872z" fill="#ffb74d"/><path d="m243.942 138.635c0-41.549 33.153-75.482 74.401-76.809-.832-.027-1.661-.063-2.5-.063-42.403 0-76.901 34.485-76.901 76.872s34.498 76.872 76.901 76.872c.838 0 1.668-.037 2.5-.063-41.248-1.327-74.401-35.259-74.401-76.809z" fill="#f2a949"/><path d="m315.815 33.014c-1.844 0-3.678.048-5.499.142 55.709 2.871 100.149 49.084 100.149 105.479s-44.44 102.609-100.149 105.48c1.821.094 3.655.142 5.499.142 58.255 0 105.65-47.382 105.65-105.622s-47.395-105.622-105.65-105.622z" fill="#efc44b"/><path d="m341.021 153.829c0-18.072-14.739-21.171-23.545-23.022-10.035-2.109-10.837-3.047-10.837-7.364 0-3.915 4.203-7.222 9.177-7.222 3.653 0 6.973 1.724 8.457 4.392 2.147 3.861 7.019 5.251 10.88 3.103 3.861-2.147 5.25-7.019 3.103-10.88-3.061-5.504-8.264-9.522-14.411-11.409v-2.56c0-4.418-3.582-8-8-8s-8 3.582-8 8v2.554c-9.986 3.083-17.206 11.787-17.206 22.022 0 18.072 14.739 21.171 23.545 23.022 10.035 2.109 10.837 3.047 10.837 7.364 0 3.982-4.129 7.222-9.206 7.222-3.637 0-6.949-1.72-8.438-4.381-2.156-3.856-7.03-5.235-10.887-3.077-3.856 2.157-5.233 7.031-3.077 10.887 3.073 5.494 8.284 9.503 14.43 11.379v2.546c0 4.418 3.582 8 8 8s8-3.582 8-8v-2.569c9.973-3.096 17.177-11.788 17.177-22.007z" fill="#dceae9"/><path d="m496.811 314.342c-11.786-20.391-37.559-27.458-59.955-16.438l-85.016 41.917c-.41.202-.864.282-1.318.233l-50.167-5.454 18.339-5.854c16.368-5.205 26.334-19.466 24.235-34.697-2.168-15.488-16.208-30.546-41.921-26.999l-137.759 18.935c-21.885 3.006-40.922 10.846-63.648 26.21l-86.599 59.096 69.192 107.693 61.109-47.839c72.523 1.612 142.45-3.944 207.882-16.516 4.558-.876 8.941-2.517 13.03-4.877l126.579-73.095c3.782-2.161 6.494-5.68 7.634-9.907 1.141-4.229.566-8.637-1.616-12.409z" fill="#ffccbc"/><g fill="#eaaa98"><path d="m496.811 314.342c-4.253-7.359-10.334-12.971-17.414-16.635 1.93 2.163 3.67 4.551 5.179 7.16 2.183 3.771 2.757 8.18 1.616 12.409-1.141 4.228-3.852 7.746-7.634 9.907l-126.579 73.095c-4.089 2.361-8.473 4.001-13.03 4.877-65.432 12.572-135.358 18.128-207.882 16.516l-57.019 44.637 8.145 12.677 61.109-47.839c72.523 1.612 142.45-3.944 207.882-16.516 4.558-.876 8.941-2.517 13.03-4.877l126.579-73.095c3.782-2.161 6.494-5.68 7.634-9.907 1.141-4.229.566-8.637-1.616-12.409z"/><path d="m330.816 273.43c.013.028 13.788 30.252-16.98 40.073l-107.004 34.156c-4.209 1.343-6.532 5.845-5.188 10.054 1.085 3.4 4.231 5.57 7.619 5.569.806 0 1.626-.123 2.435-.381l106.996-34.153c16.368-5.205 26.334-19.466 24.235-34.697-1.083-7.737-5.129-15.365-12.112-20.621z"/></g></svg>