<svg id="Layer_1" enable-background="new 0 0 24 24" height="12pt" viewBox="0 0 24 24" width="12pt" xmlns="http://www.w3.org/2000/svg">
    <g>
        <g>
            <path d="m4 8.5h13l-1.6 1.2c-.44.33-.53.96-.2 1.4.19.25.49.4.8.4.22 0 .43-.07.6-.2l4-3c.44-.34.52-.96.19-1.4-.05-.07-.12-.13-.19-.19l-3.86-3c-.44-.34-1.07-.26-1.4.18s-.26 1.07.18 1.4l1.57 1.21h-13.09c-.55 0-1 .45-1 1s.45 1 1 1z" fill="#969696"/>
            <path d="m20 15.5h-13l1.6-1.2c.44-.33.53-.96.2-1.4s-.96-.53-1.4-.2l-4 3c-.44.34-.52.96-.19 1.4.05.07.12.13.19.19l3.86 3c.17.14.39.21.61.21.31 0 .6-.14.79-.39.34-.43.26-1.06-.17-1.4l-1.57-1.21h13.08c.55 0 1-.45 1-1s-.45-1-1-1z" fill="#969696"/>
        </g>
    </g>
</svg>