<svg viewBox="0 0 32 32" width="18pt" height="18pt" xmlns="http://www.w3.org/2000/svg">
    <path d="m27.62 10.08a1 1 0 0 0 -.54 1.31 12 12 0 0 1 -1.74 12.12 10 10 0 0 0 -4.93-5.46 6 6 0 1 0 -8.82 0 10 10 0 0 0 -4.93 5.46 12 12 0 0 1 14.88-18.16 1 1 0 1 0 .92-1.77 14 14 0 1 0 6.47 7 1 1 0 0 0 -1.31-.5zm-11.62-.08a4 4 0 1 1 -4 4 4 4 0 0 1 4-4zm-7.76 15.14a8 8 0 0 1 5.23-5.71 5.9 5.9 0 0 0 5.06 0 8 8 0 0 1 5.23 5.71 12 12 0 0 1 -15.52 0z" fill="#FFFFFF"/>
    <path d="m22 6a1 1 0 0 0 0 2h2v2a1 1 0 0 0 2 0v-2h2a1 1 0 0 0 0-2h-2v-2a1 1 0 0 0 -2 0v2z" fill="#FFFFFF"/>
</svg>