<svg id="&#x421;&#x43B;&#x43E;&#x439;_1" enable-background="new 0 0 100 100" width="12pt" height="12pt" viewBox="0 0 100 100" xmlns="http://www.w3.org/2000/svg">
    <g>
        <path d="m91.5 55.667h-18.198c2.595-5.276 3.974-11.082 3.974-17.029-.001-21.305-17.334-38.638-38.638-38.638s-38.638 17.333-38.638 38.638c0 19.864 14.93 36.288 34.405 38.4v14.462c0 4.687 3.813 8.5 8.5 8.5h48.595c4.687 0 8.5-3.813 8.5-8.5v-27.333c0-4.687-3.813-8.5-8.5-8.5zm-86.5-17.029c0-18.548 15.09-33.638 33.638-33.638s33.638 15.09 33.638 33.638c0 6.023-1.616 11.879-4.648 17.029h-18.414c-.064-.26-.129-.511-.19-.739-.026-.099-.055-.207-.083-.316 1.197-1.317 3.136-3.868 3.532-6.513.356-2.392.614-3.301.708-3.581.043-.034.089-.069.137-.107.738-.58 1.973-1.551 2.952-3.81 1.337-3.078 1.208-4.848.946-6.046-.29-1.329-1.094-2.236-1.674-2.801.006-.405.012-.883.012-1.412 0-1.608-1.313-10.7-7.557-15.081-2.423-1.7-6.531-3.273-12.473-1.298-2.927-.181-5.683.8-7.997 2.861-3.86 3.438-5.879 9.34-5.879 13.394 0 .376-.004.703-.008.989-.003.258-.006.487-.006.699-.546.543-1.337 1.406-1.591 2.765-.276 1.473-.21 2.933.97 5.654.949 2.186 2.119 3.267 2.818 3.912.086.08.167.15.236.219.194.488.537 1.966.723 3.563.339 2.928 2.388 5.433 3.564 6.652-.021.079-.043.157-.063.229-.063.225-.128.462-.193.712-.661.335-2.495.848-4.585 1.433-.7.195-1.474.412-2.332.656-2.795.796-5.409 1.864-7.817 3.163-5.215-5.935-8.364-13.717-8.364-22.226zm12.162 25.909c1.692-.805 3.484-1.497 5.387-2.039.849-.241 1.616-.456 2.31-.649 5.206-1.457 7.361-2.06 8.021-4.763.074-.305.154-.59.228-.854.361-1.295.907-3.252-.714-4.612-.61-.51-2.444-2.532-2.636-4.188-.111-.952-.541-4.169-1.432-5.629-.325-.533-.738-.914-1.102-1.25-.538-.497-1.094-1.011-1.623-2.229-.745-1.716-.725-2.265-.66-2.648.072-.089.225-.24.331-.344.538-.529 1.54-1.514 1.375-3.085-.017-.156-.011-.577-.006-.985.004-.304.008-.652.008-1.053 0-2.844 1.608-7.346 4.205-9.66 1.417-1.261 2.956-1.773 4.697-1.574.384.044.773-.001 1.138-.132 3.427-1.24 6.188-1.076 8.437.503 4.012 2.816 5.429 9.527 5.429 10.988 0 .59-.008 1.115-.014 1.538-.004.308-.008.565-.008.761 0 1.269.825 2.041 1.318 2.501.164.153.439.41.481.48.054.246.218.996-.648 2.988-.477 1.1-.952 1.474-1.456 1.87-.4.314-.898.706-1.279 1.331-.408.668-.862 1.802-1.421 5.549-.231 1.548-2.111 3.801-2.642 4.266-1.367 1.138-1.153 2.733-.834 4.041h-1.147c-4.687 0-8.5 3.813-8.5 8.5v7.842c-6.531-.818-12.452-3.49-17.243-7.464zm77.838 26.953c0 1.93-1.57 3.5-3.5 3.5h-48.595c-1.93 0-3.5-1.57-3.5-3.5v-27.333c0-1.93 1.57-3.5 3.5-3.5h48.595c1.93 0 3.5 1.57 3.5 3.5z" fill="#969696"/>
        <path d="m51.514 82.882h-5.998c-1.381 0-2.5 1.119-2.5 2.5s1.119 2.5 2.5 2.5h5.998c1.381 0 2.5-1.119 2.5-2.5s-1.119-2.5-2.5-2.5z" fill="#969696"/>
        <path d="m63.945 82.882h-5.997c-1.381 0-2.5 1.119-2.5 2.5s1.119 2.5 2.5 2.5h5.997c1.381 0 2.5-1.119 2.5-2.5s-1.119-2.5-2.5-2.5z" fill="#969696"/>
        <path d="m76.378 82.882h-5.998c-1.381 0-2.5 1.119-2.5 2.5s1.119 2.5 2.5 2.5h5.998c1.381 0 2.5-1.119 2.5-2.5s-1.119-2.5-2.5-2.5z" fill="#969696"/>
        <path d="m88.81 82.882h-5.997c-1.381 0-2.5 1.119-2.5 2.5s1.119 2.5 2.5 2.5h5.997c1.381 0 2.5-1.119 2.5-2.5s-1.12-2.5-2.5-2.5z" fill="#969696"/>
    </g>
</svg>