<svg id="Layer_1" viewBox="0 0 512 512" width="18pt" height="18pt" xmlns="http://www.w3.org/2000/svg" data-name="Layer 1"><path d="m60.459 490.725h290.157v1.661a19.677 19.677 0 0 1 -19.616 19.614h-306.213a19.7 19.7 0 0 1 -19.643-19.614v-437.071a19.709 19.709 0 0 1 19.643-19.643h1.661v421.013a34.092 34.092 0 0 0 34.011 34.04zm24.947-199.869h56.743v-32.845l-19.439 19.439a7.211 7.211 0 0 1 -10.171 0l-16.146-16.15a7.192 7.192 0 0 1 10.172-10.171l11.074 11.046 24.51-24.54v-3.526h-56.743zm300.911 94.893v70.936a19.69 19.69 0 0 1 -19.643 19.643h-306.215a19.684 19.684 0 0 1 -19.614-19.643v-437.071a19.677 19.677 0 0 1 19.614-19.614h248.248v57.705a19.9 19.9 0 0 0 19.876 19.905h57.734v89.676a111.762 111.762 0 0 0 -86.485 88.656h-20.91a7.2 7.2 0 1 0 0 14.4h19.189c-.111 2.047-.188 4.1-.188 6.178a112.679 112.679 0 0 0 .923 14.339h-91.269a7.2 7.2 0 0 0 0 14.4h94.087a111.858 111.858 0 0 0 84.653 80.49zm-107.395-254.6a7.2 7.2 0 1 0 0 14.4h70a7.2 7.2 0 1 0 0-14.4zm-78.543-27.716a7.2 7.2 0 0 0 7.2 7.2h81.632a7.2 7.2 0 1 0 0-14.4h-81.634a7.177 7.177 0 0 0 -7.198 7.199zm0 34.914a7.177 7.177 0 0 0 7.2 7.2h47.01a7.2 7.2 0 0 0 0-14.4h-47.01a7.2 7.2 0 0 0 -7.2 7.199zm0 34.944a7.171 7.171 0 0 0 7.2 7.169h141.346a7.184 7.184 0 1 0 0-14.368h-141.348a7.177 7.177 0 0 0 -7.198 7.198zm0 54.936a7.171 7.171 0 0 0 7.2 7.169h81.632a7.184 7.184 0 1 0 0-14.368h-81.634a7.177 7.177 0 0 0 -7.198 7.198zm0 34.914a7.2 7.2 0 0 0 7.2 7.2h47.01a7.2 7.2 0 0 0 0-14.4h-47.01a7.177 7.177 0 0 0 -7.2 7.199zm0 89.851a7.177 7.177 0 0 0 7.2 7.2h81.632a7.2 7.2 0 0 0 0-14.4h-81.634a7.2 7.2 0 0 0 -7.198 7.199zm0 34.943a7.2 7.2 0 0 0 7.2 7.2h47.01a7.2 7.2 0 0 0 0-14.4h-47.01a7.177 7.177 0 0 0 -7.2 7.199zm-26.7-46.834a7.194 7.194 0 0 0 -10.2 0l-7.578 7.607a7.2 7.2 0 0 0 -6.557-4.2h-71.136a7.214 7.214 0 0 0 -7.2 7.2v71.14a7.214 7.214 0 0 0 7.2 7.2h71.14a7.2 7.2 0 0 0 7.2-7.2v-54.44l17.137-17.137a7.211 7.211 0 0 0 -.002-10.171zm0-124.794a7.247 7.247 0 0 0 -10.2 0l-7.578 7.607a7.2 7.2 0 0 0 -6.557-4.2h-71.136a7.214 7.214 0 0 0 -7.2 7.2v71.141a7.2 7.2 0 0 0 7.2 7.2h71.14a7.176 7.176 0 0 0 7.2-7.2v-54.441l17.137-17.137a7.211 7.211 0 0 0 -.002-10.171zm0-124.765a7.194 7.194 0 0 0 -10.2 0l-7.578 7.577a7.227 7.227 0 0 0 -6.557-4.167h-71.136a7.2 7.2 0 0 0 -7.2 7.2v71.14a7.189 7.189 0 0 0 7.2 7.169h71.14a7.17 7.17 0 0 0 7.2-7.169v-54.472l17.137-17.108a7.211 7.211 0 0 0 -.002-10.171zm182.445 331.307a7.2 7.2 0 0 0 -7.2-7.2h-141.347a7.2 7.2 0 0 0 0 14.4h141.348a7.2 7.2 0 0 0 7.199-7.2zm-7.2-42.113h-70a7.2 7.2 0 1 0 0 14.4h70a7.2 7.2 0 1 0 0-14.4zm-20.341-317.523h50.535l-56.043-56.013v50.505a5.486 5.486 0 0 0 1.632 3.876 5.419 5.419 0 0 0 3.876 1.632zm-243.177 102.878h56.743v-32.874l-19.439 19.439a7.159 7.159 0 0 1 -10.171 0l-16.146-16.146a7.192 7.192 0 1 1 10.172-10.171l11.074 11.045 24.51-24.51v-3.526h-56.743zm0 249.559h56.743v-32.874l-19.439 19.468a7.211 7.211 0 0 1 -10.171 0l-16.146-16.144a7.2 7.2 0 0 1 10.172-10.2l11.074 11.075 24.51-24.539v-3.527h-56.743zm388.955-139.133a64.778 64.778 0 1 1 -18.973-45.817 64.581 64.581 0 0 1 18.973 45.817zm-35.439 8.656-22.15-12.794v-46.164a7.2 7.2 0 1 0 -14.4 0v50.3a7.175 7.175 0 0 0 4.226 6.529l25.18 14.572a7.174 7.174 0 0 0 7.141-12.445zm67.934-8.656a97.283 97.283 0 1 1 -97.282-97.282 97.258 97.258 0 0 1 97.282 97.282zm-18.1 0a79.2 79.2 0 1 0 -23.2 55.957 78.867 78.867 0 0 0 23.202-55.957z" fill="#FFFFFF" fill-rule="evenodd"/></svg>