<svg id="Layer_1" height="18pt" viewBox="0 0 68 68" width="18pt" xmlns="http://www.w3.org/2000/svg" data-name="Layer 1">
    <path d="m60.42 27.19c-1.19-2.82-1.76-4.24-3-7l2.58-5.42-6.81-6.77-5.35 2.57c-2.79-1.19-4.21-1.76-7-2.95l-2.02-5.62h-9.64l-2 5.58c-2.83 1.19-4.25 1.76-7 2.95l-5.37-2.53-6.81 6.77 2.57 5.39c-1.19 2.79-1.76 4.21-2.95 7l-5.62 2.02v9.64l5.58 2c1.19 2.83 1.76 4.25 2.95 7l-2.53 5.37c3.41 3.44 3.41 3.44 6.85 6.85l5.35-2.57c2.79 1.19 4.21 1.76 7 3l2 5.58h9.64l2-5.58c2.82-1.19 4.24-1.76 7-3l5.35 2.53c3.44-3.41 3.44-3.41 6.85-6.85l-2.57-5.35c1.19-2.79 1.76-4.21 3-7l5.58-2v-9.62zm-26.42 24.08a17.28 17.28 0 1 1 17.28-17.27 17.28 17.28 0 0 1 -17.28 17.27z" fill="#FFFFFF"/>
    <path d="m45.22 40.63a13.76 13.76 0 0 1 -22.44 0 11.78 11.78 0 0 1 5.83-6.82 9.44 9.44 0 0 0 5.39 1.69 9.35 9.35 0 0 0 5.38-1.7 11.75 11.75 0 0 1 5.84 6.83z" fill="#FFFFFF"/>
    <path d="m39.28 26.85a5.28 5.28 0 1 1 -5.28-5.27 5.27 5.27 0 0 1 5.28 5.27z" fill="#FFFFFF"/>
</svg>