<svg id="Layer_1" enable-background="new 0 0 66 66" width="60px" height="60px" viewBox="0 0 66 66" xmlns="http://www.w3.org/2000/svg"><g><g><path d="m62 20.5v14.4l-18.2.2v-15.6l7.5-3.1z" fill="#465c6a"/><path d="m53.3 17.1v17.9l8.7-.1v-14.4z" fill="#3b4c56"/><g><path d="m50.1 26.1h5.5v4.5h-5.5z" fill="#d5b79f"/><path d="m50.1 26.1h2.9v4.5h-2.9z" fill="#c6a28a"/><ellipse cx="53.1" cy="19.3" fill="#d5b79f" rx="6.9" ry="8.5"/><path d="m53.1 10.8v17c3.8 0 6.9-3.8 6.9-8.5s-3.1-8.5-6.9-8.5z" fill="#c6a28a"/><path d="m56 12.8s-5.5 1.2-6.7 3.5c-1.1 2.3-.2 4.8-1.7 5.9 0 0 .7 2.5 1.6 4.2 0 0-1 .9.3 2.1 0 0-1.5.2-2.2-.4 0 0 1.3 2.6 2.8 2.9 0 0-2.8.3-4.3-3s-2.8-9.8-1.5-12.5 4.9-10.8 11.2-7.3c0 0 1.6-.8 3.1 1.4s3 6 3.3 8.5.2 5.9-2 8.6-5.3 4-5.3 4 2.7-2.4 3.5-3.8l-.8-.6s1.3-1.8 1.5-4.9c.2-3 .5-7.6-2.8-8.6z" fill="#465c6a"/><path d="m61.9 18.1c-.3-2.5-1.8-6.4-3.3-8.5-1.5-2.2-3.1-1.4-3.1-1.4-.9-.5-1.7-.7-2.4-.8v6.4c1.5-.5 2.9-.9 2.9-.9 3.3 1 3 5.5 2.8 8.6s-1.5 4.9-1.5 4.9l.8.6c-.8 1.3-3.5 3.8-3.5 3.8s3.1-1.4 5.3-4c2.2-2.8 2.3-6.3 2-8.7z" fill="#3b4c56"/><path d="m65 37.7c.1-2.4-1.6-3.9-3.5-5.3s-5.9-2.7-5.9-2.7l-2.6.9-2.6-.9s-3.9 1.3-5.9 2.7c-1.9 1.4-3.5 2.9-3.5 5.3.1 2.4 0 7.8 0 7.8h11.9 12.1s-.1-5.4 0-7.8z" fill="#c6a28a"/><path d="m65 45.5h-23.9s.1-5.4 0-7.8 1.6-3.9 3.5-5.3c.7-.5 1.7-1 2.7-1.4 1.3 1.8 3.4 3 5.8 3s4.5-1.2 5.8-3c1 .4 1.9.9 2.7 1.4 1.9 1.4 3.5 2.9 3.5 5.3-.2 2.4-.1 7.8-.1 7.8z" fill="#fad22c"/><path d="m65 37.7c.1-2.4-1.6-3.9-3.5-5.3-.7-.5-1.7-1-2.7-1.4-1.3 1.8-3.4 3-5.8 3v11.5h12s-.1-5.4 0-7.8z" fill="#e0b624"/></g></g><g><ellipse cx="21.1" cy="19" fill="#c6a28a" rx="1.9" ry="1.1" transform="matrix(.247 -.969 .969 .247 -2.538 34.701)"/><ellipse cx="6.1" cy="19" fill="#d5b79f" rx="1.9" ry="1.1" transform="matrix(-.247 -.969 .969 -.247 -10.801 29.572)"/><path d="m10.5 25h5.8v4.8h-5.8z" fill="#d5b79f"/><path d="m10.5 25h2.9v4.8h-2.9z" fill="#c6a28a"/><ellipse cx="13.6" cy="17.8" fill="#d5b79f" rx="7.3" ry="9"/><path d="m13.6 8.8v17.9c4 0 7.3-4 7.3-9s-3.3-8.9-7.3-8.9z" fill="#c6a28a"/><path d="m26.2 37.3c.1-2.5-1.7-4.2-3.7-5.6s-6.2-2.9-6.2-2.9l-2.7 1-.2-.2-2.6-.7s-4.2 1.4-6.2 2.9c-2 1.4-3.7 3.1-3.7 5.6.1 2.5 0 8.2 0 8.2h12.6 12.6c.1-.1.1-5.8.1-8.3z" fill="#45bbdd"/><path d="m26.2 37.3c.1-2.5-1.7-4.2-3.7-5.6s-6.2-2.9-6.2-2.9l-2.9.7v15.9h12.8c0 .1 0-5.6 0-8.1z" fill="#15a9cb"/><g><path d="m14.4 29.6h-1.9l-.9 1.4.9 1.5h1.9l.9-1.5z" fill="#e6e6e8"/><g><path d="m15.3 31-.9-1.4h-1v2.9h1z" fill="#d4d8db"/></g></g><path d="m16.4 27.4-3 2.2 2.8 2.2.8-2.7z" fill="#45bbdd"/><path d="m10.5 27.4 2.9 2.2-2.7 2.2-.8-2.6z" fill="#15a9cb"/><g><path d="m15.2 45.5h-1.8v-13h1z" fill="#e6e6e8"/><path d="m13.4 45.5h-1.7l.8-13h.9z" fill="#d4d8db"/></g><path d="m21.2 12.2c-.4-3.9-1.8-4.8-4.7-5.3-2.8-.5-7-.7-9.4 1.8-2.2 2.2-.9 9.6-.7 11 0 .1.1.2.3.2h.1c.1 0 .2-.1.2-.2.1-.7.5-3.3.6-4.4.1-1.2-.1-2.2.9-2.3s3.9 2.6 9.1 0c0 0 1.2-.2 1.2 1.1s1.4 3.4 1 5.9c0 .2.1.3.3.3.1 0 .2-.1.2-.2.4-.8 1.3-4.5.9-7.9z" fill="#465c6a"/><path d="m21.2 12.2c-.4-3.9-1.8-4.8-4.7-5.3-.9-.2-1.9-.3-2.9-.3v7.5c1.2 0 2.6-.3 4.2-1.1 0 0 1.2-.2 1.2 1.1s1.4 3.4 1 5.9c0 .2.1.3.3.3.1 0 .2-.1.2-.2.2-.8 1.1-4.5.7-7.9z" fill="#3b4c56"/></g><g><g><ellipse cx="41.7" cy="26.2" fill="#c6a28a" rx="2.4" ry="1.3" transform="matrix(.247 -.969 .969 .247 6.003 60.133)"/><ellipse cx="23" cy="26.2" fill="#d5b79f" rx="2.4" ry="1.3" transform="matrix(-.247 -.969 .969 -.247 3.257 54.94)"/><path d="m28.5 33.8h7.3v6h-7.3z" fill="#d5b79f"/><path d="m28.5 33.8h3.6v6h-3.6z" fill="#c6a28a"/><ellipse cx="32.4" cy="24.7" fill="#d5b79f" rx="9.1" ry="11.2"/><path d="m32.4 13.5v22.4c5 0 9.1-5 9.1-11.2s-4.1-11.2-9.1-11.2z" fill="#c6a28a"/><path d="m48.2 49.1c.1-3.1-2.1-5.2-4.6-7s-7.7-3.6-7.7-3.6l-3.4 1.2-.2-.3-3.3-.8s-5.2 1.8-7.7 3.6-4.7 3.9-4.6 7 0 10.3 0 10.3h15.8 15.8c-.1-.1-.2-7.3-.1-10.4z" fill="#d4d8db"/><path d="m48.2 49.1c.1-3.1-2.1-5.2-4.6-7s-7.7-3.6-7.7-3.6l-3.6.9v19.9h16c-.1.1-.2-7.1-.1-10.2z" fill="#e6e6e8"/><path d="m48.2 59.4h-16c3.9-10.2 4.2-18.5 4.2-20.6.4.2 1.1.4 1.9.7 1.7.7 3.9 1.7 5.2 2.6 2.5 1.8 4.7 3.9 4.6 7 0 3.1.1 10.3.1 10.3z" fill="#d4d8db"/><path d="m32.1 59.4c0-.1 0-.1 0 0z" fill="#e6e6e8"/><g><path d="m33.3 39.5h-2.3l-1.1 1.8 1.1 1.8h2.3l1.2-1.8z" fill="#e8664a"/><g><path d="m34.5 41.3-1.2-1.8h-1.1v3.6h1.1z" fill="#d95239"/></g></g><path d="m35.8 36.8-3.6 2.6 3.4 2.8 1-3.3z" fill="#b5babe"/><path d="m28.5 36.8 3.7 2.6-3.5 2.8-1-3.2z" fill="#e6e6e8"/><g><path d="m34.3 59.4h-2.1v-16.3h1.1z" fill="#e8664a"/><path d="m32.2 59.4h-2.2l1-16.3h1.2z" fill="#d95239"/></g><path d="m32.1 59.4h-15.5s.1-7.1 0-10.3c-.1-3.1 2.1-5.2 4.6-7 1.3-.9 3.3-1.8 4.9-2.5.7-.3 1.4-.5 1.9-.7 0 2.3.3 10.5 4.1 20.5 0-.1 0-.1 0 0z" fill="#3b4c56"/><path d="m48.2 59.4h-16c3.9-10.2 4.2-18.5 4.2-20.6.4.2 1.1.4 1.9.7 1.7.7 3.9 1.7 5.2 2.6 2.5 1.8 4.7 3.9 4.6 7 0 3.1.1 10.3.1 10.3z" fill="#465c6a"/><g><path d="m38.1 46.7.7 2.3c-2.1 6.6-6.3 10.2-6.6 10.4 3.9-10.2 4.2-18.5 4.2-20.6 0-.3 0-.5 0-.5l1.9 1.2 1 5.6z" fill="#3b4c56"/><path d="m32.1 59.4c-.4-.4-4.1-4-6.1-10.4l.7-2.3-1.3-1.6.7-5.4 1.9-1.4v.7c0 2.2.3 10.4 4.1 20.4 0-.1 0-.1 0 0z" fill="#465c6a"/></g></g><path d="m40.8 17.4s1.6-2.1-3-4.5c-4.7-2.3-10.5-.6-13 1.8s-2.3 8.9-1.8 10.5c.3 1.2.7 2.4.9 3 .1.2.2.3.4.3.3 0 .5-.2.4-.5-.1-1.2-.3-4.6-.1-6.1.3-1.8 2.8-4 5-3.8s5.7.6 7.7-.3c0 0 1.2 1.7 1.8 4 .5 1.8.3 5.1.2 6.3 0 .3.2.5.4.5h.3c.2 0 .3-.1.4-.3.6-1.6 3.1-9.1.4-10.9z" fill="#465c6a"/><path d="m40.8 17.4s1.6-2.1-3-4.5c-1.8-.9-3.7-1.2-5.5-1.1v6.4c1.8.1 3.8.1 5.1-.5 0 0 1.2 1.7 1.8 4 .5 1.8.3 5.1.2 6.3 0 .3.2.5.4.5h.2c.2 0 .3-.1.4-.3.6-1.5 3.1-9 .4-10.8z" fill="#3b4c56"/></g></g></svg>