<svg id="Layer_1" enable-background="new 0 0 512 512" width="60px" height="60px" viewBox="0 0 512 512" xmlns="http://www.w3.org/2000/svg">
    <g>
        <g>
            <path d="m156.04 50.338h-91.204c-35.808 0-64.836 29.027-64.836 64.835v353.618c0 23.864 19.345 43.209 43.209 43.209h225.661c.877 0 1.746-.034 2.61-.086h-115.44l61.752-180.076z" fill="#004460"/>
            <path d="m264.523 50.338h-108.483v461.577h115.44c22.647-1.35 40.599-20.137 40.599-43.123v-370.898c0-26.265-21.292-47.556-47.556-47.556z" fill="#002c3c"/>
        </g>
        <g>
            <path d="m74.133 163.228c-7.459 0-13.506 6.047-13.506 13.506v85.594l92.429 29.793 38.881-34.957-35.898-93.936z" fill="#c1e086"/>
            <path d="m251.452 176.733c0-7.459-6.047-13.506-13.506-13.506h-81.906v127.99l95.412-28.89z" fill="#7cdca6"/>
        </g>
        <path d="m209.587 92.385h-107.095c-8.284 0-15 6.716-15 15s6.716 15 15 15h107.095c8.284 0 15-6.716 15-15s-6.716-15-15-15z" fill="#002c3c"/>
        <g>
            <path d="m144.779 295.216-20.543-32.888h-63.609v65.777l31.804 33.658-31.804 30.484v50.636c0 7.459 6.047 13.506 13.506 13.506h50.103l15.918-32.071 15.887 10.683v-148.385z" fill="#65cbff"/>
            <path d="m237.946 456.389c7.459 0 13.506-6.047 13.506-13.506v-50.636l-30.056-28.429 30.056-35.714v-65.777h-63.608l-31.804 24.289v148.384l31.804 21.388h50.102z" fill="#5eadff"/>
        </g>
        <g>
            <path d="" fill="#004460"/>
            <path d="m187.844 328.104h63.608v64.142h-63.608z" fill="#4681ea"/>
            <path d="m60.627 328.104h63.608v64.142h-63.608z" fill="#5eadff"/>
        </g>
        <g>
            <path d="m124.235 262.328v65.776h31.805l9.172-29.429-9.172-36.347z" fill="#5eadff"/>
            <path d="m124.235 392.246v64.143h31.805l15.902-34.042-15.902-30.101z" fill="#5eadff"/>
            <g fill="#4681ea">
                <path d="m156.04 262.328h31.804v65.777h-31.804z"/>
                <path d="m156.04 392.246h31.804v64.142h-31.804z"/>
            </g>
        </g>
        <g>
            <g>
                <path d="m332.644 0h-157.827c-10.37 0-18.777 8.407-18.777 18.777v126.845l53.938 32.095-53.938 18.088v47.745c0 10.37 8.407 18.777 18.777 18.777h157.827l40.006-130.466z" fill="#006a83"/>
                <g fill="#004460">
                    <path d="m512 202.752v-57.13l-90.171 3.189z"/>
                    <path d="m493.223 0h-160.579v262.328h160.579c10.37 0 18.777-8.407 18.777-18.777v-40.799l-66.2-34.357 66.2-22.773v-126.845c0-10.37-8.407-18.777-18.777-18.777z"/>
                </g>
            </g>
            <g>
                <path d="m156.04 145.622v57.13h176.604l24.534-28.565-24.534-28.565z" fill="#fff4ae"/>
                <path d="m332.644 145.622h179.356v57.129h-179.356z" fill="#ffe367"/>
            </g>
        </g>
        <g>
            <g>
                <path d="m420.824 455.563c-3.839 0-7.678-1.464-10.607-4.394-5.857-5.858-5.857-15.355 0-21.213 8.34-8.34 12.934-19.429 12.934-31.224 0-11.794-4.593-22.883-12.934-31.224-5.858-5.858-5.858-15.355 0-21.213 5.857-5.858 15.355-5.858 21.213 0 14.007 14.006 21.721 32.629 21.721 52.437 0 19.809-7.714 38.431-21.721 52.438-2.929 2.929-6.768 4.393-10.606 4.393z" fill="#a4dfff"/>
            </g>
            <g>
                <path d="m467.528 490.607c-3.574 0-7.159-1.269-10.025-3.847-6.16-5.54-6.663-15.023-1.123-21.184 16.521-18.372 25.62-42.111 25.62-66.844 0-26.713-10.402-51.827-29.291-70.715-5.858-5.858-5.858-15.355 0-21.213 5.857-5.858 15.355-5.858 21.213 0 24.555 24.555 38.078 57.203 38.078 91.929 0 32.153-11.831 63.016-33.313 86.904-2.962 3.294-7.053 4.97-11.159 4.97z" fill="#a4dfff"/>
            </g>
        </g>
    </g>
    <g/>
    <g/>
    <g/>
    <g/>
    <g/>
    <g/>
    <g/>
    <g/>
    <g/>
    <g/>
    <g/>
    <g/>
    <g/>
    <g/>
    <g/>
</svg>