<?xml version="1.0" encoding="iso-8859-1"?>
<!-- Generator: Adobe Illustrator 19.0.0, SVG Export Plug-In . SVG Version: 6.00 Build 0)  -->
<svg version="1.1" id="Layer_1" xmlns="http://www.w3.org/2000/svg" xmlns:xlink="http://www.w3.org/1999/xlink" x="0px" y="0px" width="12pt" height="12pt"
	 viewBox="0 0 511.999 511.999" style="enable-background:new 0 0 511.999 511.999;" xml:space="preserve">
<g>
	<g>
		<path d="M474.425,82.82H37.575C16.856,82.82,0,99.676,0,120.395v271.209c0,20.719,16.856,37.575,37.575,37.575h436.849
			c20.72,0,37.575-16.856,37.575-37.575V120.395C512,99.676,495.144,82.82,474.425,82.82z M157.496,308.339h50.755
			c6.09,0,11.025,4.936,11.025,11.025s-4.936,11.025-11.025,11.025h-50.755c-6.09,0-11.025-4.936-11.025-11.025
			S151.407,308.339,157.496,308.339z M47.68,197.752c0-6.09,4.936-11.025,11.025-11.025h66.048c6.09,0,11.025,4.936,11.025,11.025
			v47.753c0,6.09-4.936,11.025-11.025,11.025H58.705c-6.09,0-11.025-4.936-11.025-11.025V197.752z M58.705,308.339h50.755
			c6.09,0,11.025,4.936,11.025,11.025s-4.936,11.025-11.025,11.025H58.705c-6.09,0-11.025-4.936-11.025-11.025
			S52.617,308.339,58.705,308.339z M239.9,379.416H58.705c-6.09,0-11.025-4.936-11.025-11.025s4.936-11.025,11.025-11.025H239.9
			c6.09,0,11.025,4.936,11.025,11.025S245.99,379.416,239.9,379.416z M307.042,330.389h-50.755c-6.09,0-11.025-4.936-11.025-11.025
			s4.936-11.025,11.025-11.025h50.755c6.09,0,11.025,4.936,11.025,11.025S313.132,330.389,307.042,330.389z M405.833,330.389
			h-50.755c-6.09,0-11.025-4.936-11.025-11.025s4.936-11.025,11.025-11.025h50.755c6.09,0,11.025,4.936,11.025,11.025
			S411.921,330.389,405.833,330.389z M453.295,169.333H333.586c-6.09,0-11.025-4.936-11.025-11.025s4.936-11.025,11.025-11.025
			h119.709c6.09,0,11.025,4.936,11.025,11.025S459.383,169.333,453.295,169.333z" fill="#969696"/>
	</g>
</g>
<g>
</g>
<g>
</g>
<g>
</g>
<g>
</g>
<g>
</g>
<g>
</g>
<g>
</g>
<g>
</g>
<g>
</g>
<g>
</g>
<g>
</g>
<g>
</g>
<g>
</g>
<g>
</g>
<g>
</g>
</svg>
