<svg height="16px" viewBox="0 -2 512.00057 512" width="16px" xmlns="http://www.w3.org/2000/svg"><path d="m282.886719 150.140625c5.503906-6.714844 8.808593-15.300781 8.808593-24.660156 0-21.5-17.429687-38.929688-38.929687-38.929688-21.496094 0-38.925781 17.429688-38.925781 38.929688 0 9.359375 3.304687 17.945312 8.808594 24.660156zm0 0" fill="#ffeb99"/><path d="m50.550781 254.519531 24.980469-22.464843c12.371094-11.125 10.25-31.066407-4.160156-39.386719-21.226563-12.253907-49.308594-23.949219-63.734375-10.976563-14.421875 12.972656-5.757813 42.136719 4.1875 64.535156 6.75 15.210938 26.355469 19.421876 38.726562 8.292969zm0 0" fill="#ff97bd"/><path d="m472.066406 321.828125h-21.972656c-8.648438 0-15.660156-7.011719-15.660156-15.660156 0-8.648438 7.011718-15.660157 15.660156-15.660157h21.972656c4.75 0 8.613282-3.863281 8.613282-8.617187v-21.03125c0-8.648437 7.011718-15.660156 15.660156-15.660156 8.648437 0 15.660156 7.011719 15.660156 15.660156v21.03125c0 22.019531-17.914062 39.9375-39.933594 39.9375zm0 0" fill="#ffb0d0"/><path d="m128.671875 507.042969c-12.769531 0-23.125-10.355469-23.125-23.125v-81.371094l46.253906 13.703125v67.667969c-.003906 12.769531-10.355469 23.125-23.128906 23.125zm0 0" fill="#ff85ab"/><path d="m340.976562 507.042969c-12.769531 0-23.125-10.355469-23.125-23.125v-81.371094l46.253907 13.703125v67.667969c0 12.769531-10.355469 23.125-23.128907 23.125zm0 0" fill="#ff85ab"/><path d="m470.019531 298.074219c0-94.136719-97.265625-170.453125-217.253906-170.453125-119.984375 0-217.25 76.3125-217.25 170.453125 0 56.15625 34.621094 105.964843 88.027344 137.019531 11.078125 6.441406 17.886719 18.296875 17.886719 31.109375v17.714844c0 12.769531 10.355468 23.125 23.125 23.125 12.773437 0 23.128906-10.355469 23.128906-23.125v-12.222657c0-5.5625 5.097656-9.695312 10.546875-8.589843 17.425781 3.535156 35.703125 5.417969 54.539062 5.417969 31.839844 0 62.074219-5.382813 89.320313-15.039063 5.683594-2.015625 11.644531 2.261719 11.644531 8.292969v22.136718c0 12.773438 10.355469 23.128907 23.128906 23.128907 12.769531 0 23.125-10.355469 23.125-23.128907v-43.035156c0-10.632812 4.75-20.65625 12.832031-27.5625 35.515626-30.339844 57.199219-70.800781 57.199219-115.242187zm0 0" fill="#ffc7de"/><path d="m123.542969 435.09375c11.078125 6.441406 17.886719 18.296875 17.886719 31.109375v17.714844c0 12.769531 10.355468 23.125 23.125 23.125 12.773437 0 23.128906-10.355469 23.128906-23.125v-12.222657c0-5.5625 5.097656-9.695312 10.546875-8.589843 17.425781 3.535156 35.703125 5.417969 54.539062 5.417969 31.839844 0 62.074219-5.382813 89.320313-15.039063 5.683594-2.015625 11.644531 2.261719 11.644531 8.292969v22.136718c0 12.773438 10.355469 23.128907 23.128906 23.128907 12.769531 0 23.125-10.355469 23.125-23.128907v-43.035156c0-10.632812 4.75-20.65625 12.832031-27.5625 8.125-6.941406 15.539063-14.421875 22.121094-22.351562-66.410156 22.84375-133.773437 19.953125-180.570312 12.867187-31.523438-4.777343-60.507813-20.492187-81.078125-44.855469-14.734375-17.453124-29.929688-26.652343-29.929688-26.652343h-103.460937c10.898437 41.898437 41.394531 78.203125 83.640625 102.769531zm0 0" fill="#ffb0d0"/><path d="m147.425781 348c0-23.105469-25.054687-41.832031-55.957031-41.832031s-55.953125 18.726562-55.953125 41.832031c0 23.101562 25.050781 41.828125 55.953125 41.828125s55.957031-18.726563 55.957031-41.828125zm0 0" fill="#ffd9e8"/><path d="m244.03125 274.175781-24.976562-22.464843c-12.371094-11.128907-10.253907-31.070313 4.15625-39.386719 21.226562-12.253907 49.3125-23.953125 63.734374-10.976563 14.421876 12.972656 5.757813 42.132813-4.1875 64.535156-6.75 15.207032-26.359374 19.421876-38.726562 8.292969zm0 0" fill="#ffb0d0"/><path d="m65.640625 363.671875c-4.722656 0-8.550781-3.832031-8.550781-8.554687v-14.238282c0-4.722656 3.828125-8.554687 8.550781-8.554687s8.554687 3.832031 8.554687 8.554687v14.238282c0 4.722656-3.832031 8.554687-8.554687 8.554687zm0 0" fill="#e56e9a"/><path d="m106.410156 363.671875c-4.722656 0-8.550781-3.832031-8.550781-8.554687v-14.238282c0-4.722656 3.828125-8.554687 8.550781-8.554687s8.550782 3.832031 8.550782 8.554687v14.238282c0 4.722656-3.828126 8.554687-8.550782 8.554687zm0 0" fill="#e56e9a"/><path d="m171.300781 288.285156c-4.269531 0-7.726562-3.460937-7.726562-7.726562v-12.828125c0-4.265625 3.457031-7.726563 7.726562-7.726563 4.265625 0 7.726563 3.460938 7.726563 7.726563v12.828125c0 4.265625-3.460938 7.726562-7.726563 7.726562zm0 0" fill="#57565c"/><path d="m81.308594 288.285156c-4.269532 0-7.726563-3.460937-7.726563-7.726562v-12.828125c0-4.265625 3.457031-7.726563 7.726563-7.726563 4.265625 0 7.726562 3.460938 7.726562 7.726563v12.828125c0 4.265625-3.460937 7.726562-7.726562 7.726562zm0 0" fill="#57565c"/><g fill="#ffde55"><path d="m194.511719 84.371094c-6.035157 6.035156-15.820313 6.035156-21.855469 0l-14.464844-14.464844c-6.035156-6.035156-6.035156-15.820312 0-21.851562 6.035156-6.035157 15.816406-6.035157 21.851563 0l14.46875 14.464843c6.03125 6.035157 6.03125 15.820313 0 21.851563zm0 0"/><path d="m311.023438 84.371094c6.035156 6.035156 15.820312 6.035156 21.855468 0l14.464844-14.464844c6.035156-6.035156 6.035156-15.820312 0-21.851562-6.035156-6.035157-15.820312-6.035157-21.851562 0l-14.46875 14.464843c-6.035157 6.035157-6.035157 15.820313 0 21.851563zm0 0"/><path d="m252.765625 66.214844c-8.53125 0-15.453125-6.921875-15.453125-15.453125v-35.308594c0-8.535156 6.921875-15.453125 15.453125-15.453125 8.535156 0 15.453125 6.917969 15.453125 15.453125v35.304687c0 8.535157-6.917969 15.457032-15.453125 15.457032zm0 0"/></g></svg>