<svg id="Capa_1" enable-background="new 0 0 512 512" height="25pt" viewBox="0 0 512 512" width="25pt" xmlns="http://www.w3.org/2000/svg" xmlns:xlink="http://www.w3.org/1999/xlink"><linearGradient id="SVGID_1_" gradientUnits="userSpaceOnUse" x1="256" x2="256" y1="398.515" y2="106"><stop offset="0" stop-color="#fd5900"/><stop offset="1" stop-color="#ffde00"/></linearGradient><linearGradient id="SVGID_2_" gradientUnits="userSpaceOnUse" x1="256" x2="256" y1="406" y2="376"><stop offset="0" stop-color="#ffe59a"/><stop offset="1" stop-color="#ffffd5"/></linearGradient><g><g><g><path d="m256 196c-74.443 0-135 60.557-135 135 0 23.73 6.255 47.065 18.076 67.515h233.848c11.821-20.45 18.076-43.785 18.076-67.515 0-74.443-60.557-135-135-135zm0-30c8.291 0 15-6.709 15-15v-30c0-8.291-6.709-15-15-15s-15 6.709-15 15v30c0 8.291 6.709 15 15 15zm-180 150h-30c-8.291 0-15 6.709-15 15s6.709 15 15 15h30c8.291 0 15-6.709 15-15s-6.709-15-15-15zm390 0h-30c-8.291 0-15 6.709-15 15s6.709 15 15 15h30c8.291 0 15-6.709 15-15s-6.709-15-15-15zm-15.146-97.5c-4.16-7.192-13.374-9.668-20.493-5.493l-25.972 15c-7.178 4.146-9.639 13.315-5.493 20.493 4.149 7.184 13.34 9.625 20.493 5.493l25.972-15c7.177-4.145 9.638-13.315 5.493-20.493zm-112.354-30.396c7.139 4.124 16.337 1.704 20.493-5.493l15-25.972c4.146-7.178 1.685-16.348-5.493-20.493-7.163-4.175-16.348-1.699-20.493 5.493l-15 25.972c-4.146 7.178-1.685 16.348 5.493 20.493zm-185.493-5.493c4.149 7.184 13.34 9.625 20.493 5.493 7.178-4.146 9.639-13.315 5.493-20.493l-15-25.972c-4.175-7.192-13.345-9.668-20.493-5.493-7.178 4.146-9.639 13.315-5.493 20.493zm-45.396 45.396-25.972-15c-7.178-4.175-16.333-1.699-20.493 5.493-4.146 7.178-1.685 16.348 5.493 20.493l25.972 15c7.139 4.124 16.337 1.704 20.493-5.493 4.146-7.178 1.685-16.348-5.493-20.493z" fill="url(#SVGID_1_)"/></g></g><g><g><path d="m497 376h-482c-8.291 0-15 6.709-15 15s6.709 15 15 15h482c8.291 0 15-6.709 15-15s-6.709-15-15-15z" fill="url(#SVGID_2_)"/></g></g></g></svg>