<svg viewBox="0 0 512 512" width="60px" height="60px" xmlns="http://www.w3.org/2000/svg"><g id="Layer_1" data-name="Layer 1"><path d="m185.624 387.309 115.485-317.294a13.359 13.359 0 0 1 17.122-7.984l173.132 63.015a13.359 13.359 0 0 1 7.984 17.121l-115.486 317.294a13.358 13.358 0 0 1 -17.121 7.984l-173.132-63.015a13.357 13.357 0 0 1 -7.984-17.121z" fill="#94e671"/><path d="m291.33 96.882 10.414-28.61a11.5 11.5 0 0 1 14.743-6.872l176.619 64.28a11.5 11.5 0 0 1 6.875 14.744l-10.413 28.611a11.5 11.5 0 0 0 -6.875-14.744l-176.619-64.284a11.5 11.5 0 0 0 -14.744 6.875z" fill="#52cc7b"/><path d="m222.378 356.855 87.435-240.228a30.23 30.23 0 0 0 41.647-16.827l93.136 33.9a30.226 30.226 0 0 0 18.065 38.74l-87.448 240.26a30.224 30.224 0 0 0 -38.74 18.065l-95.912-34.909a30.425 30.425 0 0 0 -18.183-39.001z" fill="#3d997a"/><path d="m283.436 264.073a59.267 59.267 0 1 1 59.264 59.267 59.333 59.333 0 0 1 -59.264-59.267z" fill="#ffdf40"/><path d="m147.213 376.285v-337.657a13.357 13.357 0 0 1 13.358-13.358h184.243a13.357 13.357 0 0 1 13.358 13.358v337.657a13.357 13.357 0 0 1 -13.358 13.358h-184.243a13.357 13.357 0 0 1 -13.358-13.358z" fill="#94e671"/><path d="m147.213 67.22v-30.447a11.5 11.5 0 0 1 11.5-11.5h187.956a11.5 11.5 0 0 1 11.5 11.5v30.447a11.5 11.5 0 0 0 -11.5-11.5h-187.953a11.5 11.5 0 0 0 -11.503 11.5z" fill="#52cc7b"/><path d="m171.334 335.1v-255.648a30.234 30.234 0 0 0 33.379-30.061h99.113a30.225 30.225 0 0 0 30.225 30.225v255.684a30.225 30.225 0 0 0 -30.225 30.225h-102.067a30.425 30.425 0 0 0 -30.425-30.425z" fill="#3d997a"/><path d="m193.426 207.456a59.267 59.267 0 1 1 59.266 59.267 59.332 59.332 0 0 1 -59.266-59.267z" fill="#ffdf40"/><path d="m128.139 459.058-115.486-317.294a13.358 13.358 0 0 1 7.984-17.121l173.132-63.015a13.358 13.358 0 0 1 17.122 7.983l115.485 317.294a13.358 13.358 0 0 1 -7.984 17.122l-173.132 63.015a13.359 13.359 0 0 1 -17.121-7.984z" fill="#94e671"/><path d="m22.432 168.632-10.413-28.611a11.5 11.5 0 0 1 6.875-14.744l176.619-64.284a11.5 11.5 0 0 1 14.743 6.875l10.414 28.611a11.5 11.5 0 0 0 -14.744-6.879l-176.619 64.288a11.5 11.5 0 0 0 -6.875 14.744z" fill="#52cc7b"/><path d="m136.719 412.1-87.436-240.224a30.231 30.231 0 0 0 21.084-39.664l93.136-33.9a30.226 30.226 0 0 0 38.74 18.065l87.448 240.261a30.224 30.224 0 0 0 -18.065 38.74l-95.912 34.909a30.424 30.424 0 0 0 -38.995-18.187z" fill="#3d997a"/><path d="m113.822 284.605a59.267 59.267 0 1 1 75.963 35.422 59.334 59.334 0 0 1 -75.963-35.422z" fill="#ffdf40"/><path d="m382.087 411.879v22.04a8.635 8.635 0 0 1 -8.635 8.635 8.635 8.635 0 0 1 8.635 8.636v22.039a8.635 8.635 0 0 1 -8.635 8.636h-192.087a8.636 8.636 0 0 1 -8.636-8.636v-22.039a8.636 8.636 0 0 1 8.636-8.636 8.636 8.636 0 0 1 -8.636-8.635v-22.04a8.637 8.637 0 0 1 8.636-8.636h192.087a8.636 8.636 0 0 1 8.635 8.636zm-8.635-47.946h-192.087a8.636 8.636 0 0 0 -8.636 8.635v22.04a8.636 8.636 0 0 0 8.636 8.635h192.087a8.635 8.635 0 0 0 8.635-8.635v-22.04a8.635 8.635 0 0 0 -8.635-8.635zm8.635-47.947v-22.04a8.635 8.635 0 0 0 -8.635-8.635h-192.087a8.636 8.636 0 0 0 -8.636 8.635v22.04a8.637 8.637 0 0 0 8.636 8.636 8.636 8.636 0 0 0 -8.636 8.635v22.043a8.636 8.636 0 0 0 8.636 8.635h192.087a8.635 8.635 0 0 0 8.635-8.635v-22.04a8.635 8.635 0 0 0 -8.635-8.635 8.636 8.636 0 0 0 8.635-8.639z" fill="#ffdf40"/><path d="m382.087 459.1v14.133a8.635 8.635 0 0 1 -8.635 8.636h-192.087a8.636 8.636 0 0 1 -8.636-8.636v-14.133a8.636 8.636 0 0 0 8.636 8.636h192.087a8.635 8.635 0 0 0 8.635-8.636zm0-39.31v14.133a8.635 8.635 0 0 1 -8.635 8.635h-192.087a8.636 8.636 0 0 1 -8.636-8.635v-14.137a8.636 8.636 0 0 0 8.636 8.635h192.087a8.635 8.635 0 0 0 8.635-8.635zm0-39.311v14.133a8.635 8.635 0 0 1 -8.635 8.635h-192.087a8.636 8.636 0 0 1 -8.636-8.635v-14.137a8.636 8.636 0 0 0 8.636 8.635h192.087a8.635 8.635 0 0 0 8.635-8.635zm0-39.311v14.132a8.636 8.636 0 0 1 -8.635 8.636h-192.087a8.637 8.637 0 0 1 -8.636-8.636v-14.136a8.636 8.636 0 0 0 8.636 8.635h192.087a8.635 8.635 0 0 0 8.635-8.635zm0-39.311v14.133a8.636 8.636 0 0 1 -8.635 8.636h-192.087a8.637 8.637 0 0 1 -8.636-8.636v-14.137a8.636 8.636 0 0 0 8.636 8.635h192.087a8.635 8.635 0 0 0 8.635-8.635z" fill="#ffbe40"/><path d="m479.789 383.044a103.687 103.687 0 1 1 -103.689-103.687 103.686 103.686 0 0 1 103.689 103.687z" fill="#fdbf00"/><path d="m376.1 486.73a103.687 103.687 0 0 1 0-207.373z" fill="#ff9100"/><path d="m376.1 457.99a74.946 74.946 0 1 1 74.946-74.946 75.03 75.03 0 0 1 -74.946 74.946z" fill="#ffdf40"/><path d="m376.1 457.99a74.946 74.946 0 0 1 0-149.892z" fill="#ffbe40"/><path d="m400.464 394.887a22.717 22.717 0 0 1 -11.882 23.979 29.622 29.622 0 0 1 -6.51 2.545v6.889a7 7 0 0 1 -14 0v-6.554a29.085 29.085 0 0 1 -5.249-1.643c-6.636-2.8-11.454-7.95-13.218-14.119a7 7 0 0 1 13.461-3.848c.593 2.076 2.492 3.924 5.206 5.072a16.236 16.236 0 0 0 13.687-.675 8.874 8.874 0 0 0 4.728-9.16c-.883-4.9-6.522-8.517-15.083-9.689-9.8-1.341-17.026-6.764-19.823-14.877a21.045 21.045 0 0 1 4.777-21.343 25.263 25.263 0 0 1 11.514-6.612v-6.886a7 7 0 0 1 14 0v6.7a27.271 27.271 0 0 1 14.769 9.427 7 7 0 0 1 -10.869 8.824 13.239 13.239 0 0 0 -9.922-5.041 12.7 12.7 0 0 0 -9.447 3.345 6.932 6.932 0 0 0 -1.586 7.028c1.028 2.983 4.042 4.961 8.485 5.569 14.87 2.029 24.949 9.908 26.962 21.069zm52.036-11.755a77.43 77.43 0 1 1 -77.429-77.432 77.517 77.517 0 0 1 77.429 77.432zm-14 0a63.43 63.43 0 1 0 -63.431 63.429 63.5 63.5 0 0 0 63.431-63.429zm-251.975-133.444a10.354 10.354 0 0 1 -1.053 8.646 7 7 0 0 0 12.009 7.195 24.385 24.385 0 0 0 3.471-14.487l4.663-1.7a7 7 0 1 0 -4.789-13.155l-4.826 1.761a22.5 22.5 0 0 0 -8.654-7.045 19.04 19.04 0 0 0 -19.624 2.544c-5.927 4.8-8.363 12.769-6.516 21.307 1.469 6.789.383 11.984-2.9 13.9a6.584 6.584 0 0 1 -7.586-1 12.884 12.884 0 0 1 -4.219-10.019 6.356 6.356 0 0 1 2.144-4.915 7 7 0 0 0 -8.219-11.333 20.153 20.153 0 0 0 -7.906 15.538 25.99 25.99 0 0 0 .306 5.429l-4.076 1.484a7 7 0 1 0 4.789 13.156l5.05-1.838a26.157 26.157 0 0 0 2.807 2.942 20.879 20.879 0 0 0 13.9 5.367 19.954 19.954 0 0 0 10.058-2.71c8.789-5.12 12.355-15.946 9.541-28.957-.729-3.367-.143-6.02 1.647-7.471a4.925 4.925 0 0 1 5.08-.646 9.81 9.81 0 0 1 4.903 6.007zm319.4-106.572-56.92 156.391a111.651 111.651 0 0 1 -110.254 189.235h-157.425a15.653 15.653 0 0 1 -15.636-15.635v-7.077l-19.832 7.218a18.444 18.444 0 0 1 -23.639-11.024l-116.146-319.108a18.464 18.464 0 0 1 11.027-23.638l123.7-45.023v-38.822a18.463 18.463 0 0 1 18.437-18.443h186.974a18.463 18.463 0 0 1 18.443 18.443v36.438l130.246 47.407a18.464 18.464 0 0 1 11.027 23.638zm-70.03-4.681-71.243-25.93v88.852a66.044 66.044 0 0 1 39.7 74 110.579 110.579 0 0 1 11.608 3.843l37.515-103.072a37.13 37.13 0 0 1 -17.578-37.7zm-71.241 133.508c3.431-.319 6.905-.49 10.418-.49a112.216 112.216 0 0 1 15.562 1.089 52.095 52.095 0 0 0 -25.98-55.717zm-209.86-202.583 38-13.831a18.485 18.485 0 0 1 4.315-.989 23.026 23.026 0 0 0 .885-6.355 7 7 0 0 1 7-7h98.6a7 7 0 0 1 7 7 23.093 23.093 0 0 0 23.067 23.068 7 7 0 0 1 7 7v198.633q4.9-1.593 10-2.737v-238.516a4.448 4.448 0 0 0 -4.443-4.443h-186.981a4.448 4.448 0 0 0 -4.443 4.443zm-78.758 89.54a36.792 36.792 0 0 1 -17.355 17.66l82.429 226.476a37.311 37.311 0 0 1 25.088 4.839 15.544 15.544 0 0 1 2.106-4.754 15.541 15.541 0 0 1 -2.614-8.636v-22.04a15.548 15.548 0 0 1 2.613-8.636 15.541 15.541 0 0 1 -2.613-8.634v-22.04a15.541 15.541 0 0 1 2.61-8.635 15.632 15.632 0 0 1 -1.377-2.544 66.061 66.061 0 0 1 -62.045-43.4 65.958 65.958 0 1 1 124.053-.369h24.093l-55.552-152.63a37.131 37.131 0 0 1 -37.7-17.579l-80.721 29.384a36.809 36.809 0 0 1 -3.015 21.538zm187.357 224.232a112.218 112.218 0 0 1 .683-12.323h-82.75a1.638 1.638 0 0 0 -1.636 1.636v22.04a1.638 1.638 0 0 0 1.636 1.636h82.826a112.336 112.336 0 0 1 -.759-12.989zm-82.067-104.944h32.467a51.921 51.921 0 1 0 -95.755-4.419 52.389 52.389 0 0 0 47.652 34.159v-14.1a15.654 15.654 0 0 1 15.636-15.64zm0 157.243h95.1a110.945 110.945 0 0 1 -9.725-25.31h-85.375a1.637 1.637 0 0 0 -1.636 1.636v22.043a1.637 1.637 0 0 0 1.636 1.631zm94.743-103.931h-94.743a1.637 1.637 0 0 0 -1.636 1.636v22.04a1.637 1.637 0 0 0 1.636 1.634h85.208a110.894 110.894 0 0 1 9.535-25.31zm34.254-39.311h-129a1.638 1.638 0 0 0 -1.636 1.636v22.039a1.638 1.638 0 0 0 1.636 1.636h103.45a112.62 112.62 0 0 1 25.55-25.312zm-27.844-44.179a51.951 51.951 0 0 0 -29.755-94.541c-1.531 0-3.055.09-4.574.223zm10.984 30.178h33.195v-193.598a37.177 37.177 0 0 1 -29.4-29.4h-85.919c-.208 1.09-.484 2.164-.79 3.23a18.306 18.306 0 0 1 5.885 8.137l26.79 73.605a65.956 65.956 0 0 1 75.458 65.27 65.552 65.552 0 0 1 -31.282 56.088zm-127.773 172.942v-.063a15.548 15.548 0 0 1 2.613-8.636 15.542 15.542 0 0 1 -2.613-8.635v-7.886a23.253 23.253 0 0 0 -26.594-7.944 7 7 0 0 1 -8.973-4.184l-86.98-238.977a7 7 0 0 1 4.877-9.184 23.209 23.209 0 0 0 2.312-.708 23.064 23.064 0 0 0 13.785-29.565 7 7 0 0 1 4.184-8.972l92.65-33.722a7 7 0 0 1 8.973 4.184 23.067 23.067 0 0 0 29.565 13.787 7 7 0 0 1 8.973 4.183l59.465 163.38h10.636l-75.286-206.848a4.443 4.443 0 0 0 -5.694-2.656l-175.7 63.949a4.45 4.45 0 0 0 -2.656 5.695l116.148 319.107a4.451 4.451 0 0 0 5.695 2.657zm145.587 23.612a112.617 112.617 0 0 1 -26.017-25.311h-103.934a1.638 1.638 0 0 0 -1.636 1.636v22.04a1.637 1.637 0 0 0 1.636 1.635zm63.8-189.289a97.679 97.679 0 1 0 97.679 97.679 97.789 97.789 0 0 0 -97.684-97.679zm115.043-152.82-125.466-45.664v10.637l81.993 29.843a7 7 0 0 1 4.184 8.972 23.069 23.069 0 0 0 13.785 29.566 7 7 0 0 1 4.185 8.972l-40.119 110.228q4.477 2.461 8.7 5.309l55.386-152.168a4.45 4.45 0 0 0 -2.653-5.695z"/></g></svg>