<svg id="Flat" height="60px" viewBox="0 0 512 512" width="60px" xmlns="http://www.w3.org/2000/svg"><path d="m96 72h392v368h-392z" fill="#2b7cd4" transform="matrix(-1 0 0 -1 584 512)"/><path d="m24 72h72v368h-72z" fill="#104f91" transform="matrix(-1 0 0 -1 120 512)"/><path d="m304 72h136v368h-136z" fill="#3ea7ff" transform="matrix(-1 0 0 -1 744 512)"/><path d="m272 72h32v368h-32z" fill="#104f91" transform="matrix(-1 0 0 -1 576 512)"/><path d="m128 104h144v312h-144z" fill="#808080" transform="matrix(-1 0 0 -1 400 520)"/><path d="m128 248h144v168h-144z" fill="#4d4d4d" transform="matrix(-1 0 0 -1 400 664)"/><path d="m312 192h40a0 0 0 0 1 0 0v32a0 0 0 0 1 0 0h-40a16 16 0 0 1 -16-16 16 16 0 0 1 16-16z" fill="#ccc"/><ellipse cx="376" cy="208" fill="#e6e6e6" rx="32" ry="40"/><path d="m128 208h144v40h-144z" fill="#85b200"/><path d="m184 208h32v40h-32z" fill="#eacf4d"/><path d="m128 168h144v40h-144z" fill="#a0cc00"/><path d="m184 168h32v40h-32z" fill="#f2e368"/><path d="m152 416 24-48h40l24 48z" fill="#fc7"/><path d="m152 368 24-48h40l24 48z" fill="#f2e368"/><path d="m128 320h48l-24 48h-24z" fill="#eacf4d"/><path d="m128 368h48l-24 48h-24z" fill="#fcb73f"/></svg>